<?xml version="1.0" encoding="UTF-8" standalone="no"?>
<!-- Created with Inkscape (http://www.inkscape.org/) -->

<svg
   xmlns:dc="http://purl.org/dc/elements/1.1/"
   xmlns:cc="http://creativecommons.org/ns#"
   xmlns:rdf="http://www.w3.org/1999/02/22-rdf-syntax-ns#"
   xmlns:svg="http://www.w3.org/2000/svg"
   xmlns="http://www.w3.org/2000/svg"
   xmlns:sodipodi="http://sodipodi.sourceforge.net/DTD/sodipodi-0.dtd"
   xmlns:inkscape="http://www.inkscape.org/namespaces/inkscape"
   width="210.90396"
   height="188.20584"
   id="svg2"
   version="1.1"
   inkscape:version="0.48.4 r9939"
   inkscape:export-filename="les-mardis-d-olivier.png"
   inkscape:export-xdpi="105.16"
   inkscape:export-ydpi="105.16"
   sodipodi:docname="les-mardis-d-olivier.svg">
  <defs
     id="defs4" />
  <sodipodi:namedview
     id="base"
     pagecolor="#ffffff"
     bordercolor="#666666"
     borderopacity="1.0"
     inkscape:pageopacity="0.0"
     inkscape:pageshadow="2"
     inkscape:zoom="2.8"
     inkscape:cx="109.11426"
     inkscape:cy="82.586932"
     inkscape:document-units="px"
     inkscape:current-layer="layer1"
     showgrid="false"
     fit-margin-top="20"
     fit-margin-left="20"
     fit-margin-right="20"
     fit-margin-bottom="20"
     inkscape:window-width="1600"
     inkscape:window-height="852"
     inkscape:window-x="0"
     inkscape:window-y="22"
     inkscape:window-maximized="1" />
  <metadata
     id="metadata7">
    <rdf:RDF>
      <cc:Work
         rdf:about="">
        <dc:format>image/svg+xml</dc:format>
        <dc:type
           rdf:resource="http://purl.org/dc/dcmitype/StillImage" />
        <dc:title></dc:title>
      </cc:Work>
    </rdf:RDF>
  </metadata>
  <g
     inkscape:label="Calque 1"
     inkscape:groupmode="layer"
     id="layer1"
     transform="translate(-161.00193,-249.33346)">
    <path
       style="fill:#ffffff;fill-opacity:1;stroke:#aaccee;stroke-width:20;stroke-linecap:butt;stroke-linejoin:round;stroke-miterlimit:4;stroke-opacity:1;stroke-dasharray:none"
       d="m 323.68467,356.5396 c 8.61958,-21.83989 -6.12785,-42.46298 -23.78515,-46.48975 -17.6573,-4.02677 -32.526,4.63664 -33.40932,4.69187 1.22922,-15.00956 -8.37334,-29.31426 -22.86568,-33.51457 -25.09744,-8.53742 -55.84014,12.99732 -52.35022,40.42147 2.70346,27.55266 10.53596,55.2361 24.11757,79.28457 15.03806,13.82442 35.78306,2.55988 51.81207,-3.22438 21.79765,-8.74281 42.7074,-21.7284 56.48073,-41.16923 z"
       id="path3001"
       inkscape:connector-curvature="0"
       sodipodi:nodetypes="czccccccc" />
    <g
       id="g3858"
       style="stroke-width:0.1;stroke-miterlimit:4;stroke-dasharray:none"
       transform="translate(10,6)">
      <g
         transform="matrix(0.89741926,-0.44117872,0.44117872,0.89741926,0,0)"
         style="font-size:19.59294701px;font-style:normal;font-variant:normal;font-weight:bold;font-stretch:normal;text-align:start;line-height:125%;letter-spacing:0px;word-spacing:0px;writing-mode:lr-tb;text-anchor:start;fill:#000000;fill-opacity:1;stroke:none;font-family:Purisa;-inkscape-font-specification:Purisa Bold"
         id="text3826">
        <path
           sodipodi:type="inkscape:offset"
           inkscape:radius="1.1978936"
           inkscape:original="M 5.75 402.90625 C 5.554068 402.90626 5.3988053 402.98134 5.28125 403.125 C 5.1767521 403.25564 5.07837 403.58435 5 404.09375 C 4.9216264 404.60319 4.8749981 405.32775 4.875 406.28125 C 4.8749981 407.31316 4.921626 408.37156 5 409.46875 C 5.1698034 411.53255 5.3535062 413.96781 5.5625 416.75 C 5.7453647 419.38852 5.9136894 420.98264 6.03125 421.53125 C 6.1618665 422.06679 6.4308897 422.34375 6.875 422.34375 C 7.3713502 422.34375 7.6249954 422.11342 7.625 421.65625 C 7.6249954 421.59094 7.539675 420.10544 7.34375 417.21875 C 7.1608784 414.33206 6.9407994 411.36901 6.71875 408.3125 C 6.509755 405.25601 6.377806 403.58682 6.3125 403.3125 C 6.2471869 403.05128 6.0634841 402.90626 5.75 402.90625 z "
           id="path3969"
           d="m 5.75,401.71875 c -0.5019169,3e-5 -1.0908603,0.27082 -1.40625,0.65625 -0.4876613,0.60966 -0.4417461,0.94948 -0.53125,1.53125 -0.093471,0.60758 -0.125002,1.38245 -0.125,2.375 -2e-6,1.068 0.045131,2.16313 0.125,3.28125 0.1692782,2.05742 0.3535227,4.49928 0.5625,7.28125 0.1840694,2.6559 0.331909,4.15308 0.5,4.9375 a 1.1980134,1.1980134 0 0 0 0,0.0312 c 0.098904,0.40552 0.265319,0.83535 0.625,1.1875 0.359681,0.35215 0.9039312,0.53125 1.375,0.53125 0.4334682,0 0.9582147,-0.0876 1.375,-0.46875 0.4167853,-0.38115 0.5624955,-0.95613 0.5625,-1.40625 -9.7e-6,-0.13841 0.0029,-0.10016 0,-0.15625 -0.0029,-0.0561 0.00561,-0.12059 0,-0.21875 -0.011218,-0.19631 -0.039501,-0.50338 -0.0625,-0.875 -0.045562,-0.73618 -0.1220923,-1.82481 -0.21875,-3.25 -6.383e-4,-0.0101 6.392e-4,-0.0212 0,-0.0312 -0.1830529,-2.88601 -0.4038137,-5.86162 -0.625,-8.90625 -0.1046555,-1.53056 -0.1819516,-2.68802 -0.25,-3.53125 -0.034024,-0.42162 -0.067418,-0.77363 -0.09375,-1.03125 -0.026332,-0.25762 -0.035085,-0.37857 -0.09375,-0.625 -0.084109,-0.33639 -0.28417,-0.71696 -0.625,-0.96875 C 6.50292,401.81071 6.0914527,401.71876 5.75,401.71875 z" />
        <path
           sodipodi:type="inkscape:offset"
           inkscape:radius="0.65890342"
           inkscape:original="M 15.15625 411.34375 C 14.281094 411.34376 13.359769 411.7993 12.40625 412.6875 C 11.452724 413.56266 10.836799 414.37767 10.5625 415.1875 C 10.418817 415.64468 10.343749 416.12865 10.34375 416.625 C 10.343749 418.38837 10.843103 419.77548 11.875 420.78125 C 12.906892 421.78702 14.063672 422.28125 15.34375 422.28125 C 16.898116 422.28125 18.412051 421.6602 19.875 420.40625 C 20.253787 420.06664 20.652442 419.64235 21.03125 419.09375 C 21.410035 418.53209 21.593738 418.08168 21.59375 417.78125 C 21.593738 417.50696 21.485103 417.37501 21.25 417.375 C 21.054059 417.37501 20.712284 417.55358 20.28125 417.90625 C 19.863257 418.24586 19.425909 418.61327 18.96875 419.03125 C 18.524634 419.44924 17.983778 419.83483 17.34375 420.1875 C 16.703707 420.52712 16.10597 420.71875 15.53125 420.71875 C 14.812837 420.71875 14.098529 420.41848 13.40625 419.84375 C 12.922954 419.43883 12.59705 419.05324 12.375 418.6875 C 12.166006 418.32177 12.031247 417.88954 12.03125 417.40625 L 12.03125 416.90625 L 13.75 416.8125 C 15.095377 416.73413 16.389233 416.59194 17.65625 416.34375 C 18.622827 416.14783 19.313819 415.92262 19.71875 415.6875 C 20.12366 415.45239 20.343739 415.09011 20.34375 414.59375 C 20.343739 414.21496 20.1521 413.77762 19.8125 413.28125 C 19.472878 412.77185 19.105473 412.36806 18.6875 412.09375 C 18.308694 411.84558 17.956667 411.7034 17.65625 411.625 C 17.368879 411.53358 16.892839 411.45855 16.1875 411.40625 C 15.730325 411.36705 15.39136 411.34376 15.15625 411.34375 z M 16.1875 412.78125 C 16.514042 412.78126 16.767687 412.7966 16.9375 412.875 C 17.12036 412.95338 17.425759 413.15528 17.84375 413.46875 C 18.418467 413.89981 18.71874 414.17677 18.71875 414.28125 C 18.71874 414.52944 18.436655 414.70802 17.875 414.8125 C 15.628336 415.25662 13.860756 415.46876 12.59375 415.46875 C 12.41088 415.46875 12.30224 415.48185 12.25 415.46875 C 12.249997 415.1814 12.762413 414.55521 13.78125 413.5625 C 14.120856 413.23596 14.44957 413.0289 14.75 412.9375 C 15.063482 412.83306 15.534396 412.78126 16.1875 412.78125 z "
           id="path3971"
           d="m 15.15625,410.6875 c -1.096531,10e-6 -2.136251,0.58677 -3.15625,1.53125 l -0.03125,0 c -0.989767,0.91147 -1.705887,1.78941 -2.03125,2.75 a 0.65896931,0.65896931 0 0 0 0,0.0312 c -0.1638799,0.52144 -0.2500011,1.06221 -0.25,1.625 -1.1e-6,1.88776 0.546094,3.48203 1.71875,4.625 1.13089,1.10226 2.487823,1.6875 3.9375,1.6875 1.729877,0 3.41688,-0.70108 4.96875,-2.03125 0.410794,-0.36831 0.838633,-0.84175 1.25,-1.4375 0.414871,-0.61517 0.687477,-1.1185 0.6875,-1.6875 -10e-6,-0.22413 -0.05016,-0.481 -0.25,-0.71875 -0.199843,-0.23775 -0.509184,-0.34374 -0.75,-0.34375 -0.298114,2e-5 -0.503587,0.10221 -0.71875,0.21875 -0.215163,0.11654 -0.416858,0.27288 -0.65625,0.46875 -0.423925,0.34443 -0.874054,0.69556 -1.34375,1.125 a 0.65896931,0.65896931 0 0 0 0,0.0312 c -0.396967,0.37361 -0.900349,0.73208 -1.5,1.0625 l 0,-0.0312 c -0.580655,0.30811 -1.071746,0.46875 -1.5,0.46875 -0.527952,0 -1.08879,-0.22797 -1.6875,-0.71875 -0.429727,-0.36004 -0.725929,-0.67585 -0.90625,-0.96875 -0.0048,-0.008 0.0047,-0.0228 0,-0.0312 -0.130266,-0.23534 -0.197979,-0.51868 -0.21875,-0.8125 l 1.0625,-0.0625 c 1.367084,-0.0796 2.696529,-0.21342 4,-0.46875 1.003006,-0.2033 1.752833,-0.44318 2.28125,-0.75 0.569434,-0.33064 0.937485,-0.96513 0.9375,-1.65625 -1.7e-5,-0.59134 -0.289486,-1.1157 -0.65625,-1.65625 -0.006,-0.009 0.0061,-0.0224 0,-0.0312 l 0.03125,0 c -0.37214,-0.55817 -0.79463,-1.03513 -1.3125,-1.375 -0.429541,-0.28141 -0.857281,-0.43432 -1.21875,-0.53125 -0.0074,-0.002 -0.02373,0.002 -0.03125,0 -0.385295,-0.11922 -0.846587,-0.19692 -1.5625,-0.25 -0.462662,-0.0397 -0.815153,-0.0625 -1.09375,-0.0625 z m 1.03125,2.75 c 0.305917,10e-6 0.495943,0.0438 0.46875,0.0312 a 0.65896931,0.65896931 0 0 0 0.03125,0 c 0.05044,0.0216 0.346609,0.22873 0.75,0.53125 0.09537,0.0715 0.140878,0.0949 0.21875,0.15625 -1.724127,0.33694 -2.929139,0.46634 -4.03125,0.53125 0.197598,-0.21279 0.340665,-0.37921 0.625,-0.65625 0.286795,-0.27576 0.524136,-0.41905 0.6875,-0.46875 a 0.65896931,0.65896931 0 0 0 0.03125,0 c 0.187731,-0.0625 0.600481,-0.12499 1.21875,-0.125 z" />
        <path
           sodipodi:type="inkscape:offset"
           inkscape:radius="1.022216"
           inkscape:original="M 29.625 411.59375 L 27.6875 411.78125 C 26.590291 412.01637 25.650779 412.52085 24.90625 413.34375 C 24.161716 414.16666 23.812499 414.85253 23.8125 415.375 C 23.812499 415.89748 24.109962 416.40478 24.75 416.875 C 25.390033 417.34524 25.920638 417.6091 26.3125 417.6875 C 26.560674 417.73975 26.946267 417.88476 27.46875 418.09375 C 27.991223 418.28968 28.462138 418.43188 28.90625 418.5625 C 29.180545 418.64088 29.423937 418.76769 29.59375 418.9375 C 29.77661 419.1073 29.86706 419.23926 29.90625 419.34375 C 29.94543 419.43518 29.968742 419.5103 29.96875 419.5625 C 29.968742 419.87599 29.7566 420.31847 29.3125 420.90625 C 28.881449 421.48098 28.397473 421.78125 27.875 421.78125 C 27.457012 421.78125 27.014538 421.67262 26.53125 421.4375 C 26.047954 421.18932 25.737429 420.93055 25.59375 420.65625 C 25.34557 420.19909 25.045296 419.96875 24.71875 419.96875 C 24.548942 419.96875 24.398806 420.04894 24.28125 420.21875 C 24.163693 420.37549 24.124999 420.5592 24.125 420.78125 C 24.124999 421.12087 24.215445 421.4962 24.4375 421.875 C 24.659552 422.24073 24.931385 422.48132 25.21875 422.625 C 25.57142 422.78174 26.04746 422.92675 26.6875 423.03125 C 27.340594 423.14879 27.876324 423.18749 28.28125 423.1875 C 28.842908 423.18749 29.401952 422.97023 29.9375 422.5 C 30.473032 422.04283 30.817124 421.58729 31 421.15625 C 31.222044 420.6599 31.343741 420.11391 31.34375 419.5 C 31.343741 418.79466 31.08497 418.23561 30.5625 417.84375 C 30.040014 417.4519 29.090249 417.06118 27.71875 416.65625 C 27.22239 416.51258 26.803231 416.33912 26.4375 416.15625 C 26.084823 415.97339 25.81299 415.81812 25.65625 415.6875 C 25.512568 415.54382 25.437497 415.417 25.4375 415.3125 C 25.437497 415.15576 25.634262 414.91518 26 414.5625 C 26.365731 414.19677 26.841772 413.82656 27.46875 413.5 C 28.108781 413.1604 28.724706 413.00001 29.3125 413 C 29.743538 413.00001 30.118879 413.15528 30.40625 413.46875 C 30.706667 413.76919 30.993878 413.93751 31.28125 413.9375 C 31.620852 413.93751 31.78124 413.76406 31.78125 413.4375 C 31.78124 413.20239 31.569098 412.82193 31.125 412.3125 C 30.850691 411.99902 30.62036 411.79715 30.4375 411.71875 C 30.254625 411.6273 29.977666 411.59376 29.625 411.59375 z "
           id="path3973"
           d="m 29.53125,410.5625 -1.9375,0.1875 a 1.0223182,1.0223182 0 0 0 -0.125,0.0312 c -1.273235,0.27284 -2.420383,0.88898 -3.3125,1.875 -0.827429,0.91453 -1.375002,1.74078 -1.375,2.71875 -2e-6,0.91047 0.574042,1.72406 1.375,2.3125 0.701275,0.51524 1.296341,0.86631 1.9375,1 0.0082,0.002 0.02304,-0.002 0.03125,0 0.09811,0.0234 0.470231,0.14435 0.96875,0.34375 a 1.0223182,1.0223182 0 0 0 0.03125,0.0312 c 0.559301,0.20974 1.050879,0.33666 1.5,0.46875 0.147834,0.0422 0.245597,0.1206 0.25,0.125 -0.01807,-0.0158 -0.0374,0.17818 -0.375,0.625 -0.313227,0.41763 -0.494178,0.46875 -0.625,0.46875 -0.233031,0 -0.518993,-0.0504 -0.875,-0.21875 -0.01633,-0.008 -0.01584,0.008 -0.03125,0 C 26.620962,420.3441 26.486014,420.1608 26.5,420.1875 a 1.0223182,1.0223182 0 0 0 0,-0.0312 c -0.344436,-0.63447 -0.974001,-1.21875 -1.78125,-1.21875 -0.477322,0 -0.979604,0.29069 -1.25,0.65625 -0.0068,0.009 0.0065,0.0221 0,0.0312 -0.266705,0.37194 -0.375001,0.8236 -0.375,1.15625 -2e-6,0.52111 0.158957,1.09653 0.46875,1.625 0.31091,0.51208 0.72251,0.89251 1.1875,1.125 a 1.0223182,1.0223182 0 0 0 0.0625,0.0312 c 0.443187,0.19697 0.995548,0.35333 1.6875,0.46875 0.01191,0.002 0.01925,-0.002 0.03125,0 0.694212,0.12282 1.288121,0.18749 1.75,0.1875 0.815769,-10e-6 1.63394,-0.35034 2.3125,-0.9375 l 0,-0.0312 c 0.615158,-0.52927 1.084904,-1.0774 1.34375,-1.6875 0.279297,-0.62433 0.437489,-1.31351 0.4375,-2.0625 -1.2e-5,-0.95535 -0.421302,-1.89409 -1.1875,-2.46875 -0.737244,-0.55291 -1.76765,-0.92454 -3.1875,-1.34375 -0.432918,-0.12531 -0.776183,-0.27871 -1.09375,-0.4375 -0.04702,-0.0244 -0.05054,-0.008 -0.09375,-0.0312 0.286832,-0.27478 0.630834,-0.55511 1.125,-0.8125 0.517891,-0.27479 0.973147,-0.37499 1.375,-0.375 0.185568,0 0.242366,0.0144 0.34375,0.125 a 1.0223182,1.0223182 0 0 0 0.03125,0.0312 c 0.395776,0.39581 0.907198,0.78127 1.59375,0.78125 0.343836,10e-6 0.772882,-0.11029 1.09375,-0.4375 0.320868,-0.32721 0.43749,-0.76312 0.4375,-1.09375 -3.6e-5,-0.84997 -0.402453,-1.20334 -0.90625,-1.78125 a 1.0223182,1.0223182 0 0 0 0,-0.0312 c -0.301817,-0.34492 -0.563999,-0.60854 -1,-0.8125 -0.02174,-0.0109 -0.04107,0.01 -0.0625,0 -0.434628,-0.20041 -0.820905,-0.24999 -1.21875,-0.25 a 1.0223182,1.0223182 0 0 0 -0.09375,0 z" />
        <path
           sodipodi:type="inkscape:offset"
           inkscape:radius="0.56469244"
           inkscape:original="M 49.1875 411.09375 C 48.8087 411.09376 48.624997 411.53111 48.625 412.40625 C 48.624997 412.61526 48.68981 413.44613 48.78125 414.84375 C 48.885743 416.22832 48.937497 417.52731 48.9375 418.78125 C 48.937497 420.74055 48.97106 422.02415 49.0625 422.625 C 49.15393 423.23891 49.366073 423.5625 49.71875 423.5625 C 49.836304 423.5625 49.95287 423.52095 50.03125 423.46875 C 50.12268 423.42956 50.19775 423.3545 50.25 423.25 C 50.302247 423.14551 50.31762 423.06015 50.34375 422.96875 C 50.38293 422.87732 50.42443 422.72717 50.4375 422.53125 C 50.46362 422.33532 50.468745 422.18006 50.46875 422.0625 L 50.46875 421.5 C 50.48184 421.25182 50.499995 421.03687 50.5 420.90625 C 50.539181 419.57394 50.601188 418.74586 50.71875 418.40625 C 50.84937 418.06664 50.937495 417.75099 50.9375 417.4375 C 50.937495 416.95421 51.064317 416.45999 51.3125 415.9375 C 52.200707 414.03046 52.728502 413.0523 52.9375 413 C 53.055051 413.00001 53.256941 413.17065 53.53125 413.5625 C 54.027596 414.18948 54.379624 414.90379 54.5625 415.6875 C 54.745358 416.47122 54.87731 417.87653 54.96875 419.875 C 54.96874 420.00563 54.95568 420.1842 54.96875 420.40625 C 55.007926 421.26834 55.05968 421.81945 55.125 422.09375 C 55.203363 422.36805 55.400127 422.5 55.6875 422.5 C 56.09241 422.5 56.32274 422.15591 56.375 421.4375 C 56.466423 419.84394 56.743382 418.31182 57.1875 416.875 C 57.644657 415.42513 58.087131 414.34341 58.53125 413.625 C 58.975344 412.9066 59.309184 412.5625 59.53125 412.5625 C 59.844724 412.5625 60.05174 413.28194 60.15625 414.71875 C 60.273796 416.14251 60.343736 417.64851 60.34375 419.28125 C 60.35679 420.90093 60.38524 421.81713 60.4375 422 C 60.515857 422.23511 60.652932 422.34375 60.875 422.34375 C 61.057852 422.34375 61.1898 422.3284 61.28125 422.25 C 61.372668 422.17163 61.46592 421.96974 61.53125 421.65625 C 61.609601 421.34277 61.64317 420.88723 61.65625 420.3125 C 61.68236 419.72472 61.687484 418.88358 61.6875 417.8125 C 61.687484 415.47441 61.630604 414.02017 61.5 413.40625 C 61.369365 412.83153 61.139034 412.34243 60.8125 411.9375 C 60.498998 411.53259 60.131592 411.31251 59.6875 411.3125 C 58.969079 411.31251 58.231457 411.78624 57.5 412.6875 C 56.781581 413.58879 56.240725 414.61874 55.875 415.78125 L 55.75 415.03125 C 55.61937 414.22142 55.47436 413.67031 55.34375 413.34375 C 55.213121 413.00415 54.995852 412.62881 54.65625 412.25 C 54.055391 411.62304 53.491221 411.31251 52.96875 411.3125 C 52.485451 411.31251 52.133423 411.40576 51.9375 411.5625 C 51.741565 411.70619 51.482794 412.08666 51.15625 412.6875 C 50.999501 412.97488 50.885741 413.17395 50.78125 413.34375 C 50.67675 413.5005 50.60168 413.61705 50.5625 413.65625 C 50.523309 413.68238 50.45849 413.75235 50.40625 413.84375 C 50.36706 413.93519 50.32837 414.05408 50.25 414.25 C 50.210809 414.09327 50.14599 413.85781 50.09375 413.53125 C 50.041498 413.20471 49.98974 412.93569 49.9375 412.6875 C 49.89831 412.43934 49.84656 412.18569 49.78125 411.9375 C 49.715936 411.67627 49.635742 411.45619 49.53125 411.3125 C 49.439813 411.16878 49.318116 411.09376 49.1875 411.09375 z "
           id="path3975"
           d="m 49.1875,410.53125 c -0.406723,10e-6 -0.790528,0.3116 -0.9375,0.65625 -0.146972,0.34465 -0.187502,0.74167 -0.1875,1.21875 -5e-6,0.32577 0.06499,1.07393 0.15625,2.46875 0.103551,1.37209 0.156247,2.66785 0.15625,3.90625 -3e-6,1.96575 0.01866,3.23871 0.125,3.9375 0.05296,0.3556 0.125397,0.66579 0.3125,0.9375 0.187103,0.27171 0.557205,0.46875 0.90625,0.46875 0.212679,0 0.374544,-0.0685 0.53125,-0.15625 0.01948,-0.0109 0.0435,-0.0192 0.0625,-0.0312 0.0067,-0.004 0.02467,0.004 0.03125,0 l 0,-0.0312 c 0.16808,-0.10434 0.324485,-0.24272 0.40625,-0.40625 0.07214,-0.14428 0.07563,-0.2407 0.09375,-0.3125 l 0.03125,0 c 0.0032,-0.0125 -0.0025,-0.0537 0,-0.0625 0.05693,-0.14703 0.107654,-0.31658 0.125,-0.53125 9.74e-4,-0.0121 -8.21e-4,-0.0189 0,-0.0312 0.02567,-0.20735 0.03124,-0.3739 0.03125,-0.5 l 0,-0.53125 0,-0.0312 c 0.01186,-0.21103 0.02955,-0.39602 0.03125,-0.5625 9.4e-5,-0.009 0,-0.0221 0,-0.0312 0.04004,-1.29259 0.143276,-2.18475 0.1875,-2.3125 0.142156,-0.3696 0.249993,-0.73694 0.25,-1.15625 -4e-6,-0.3845 0.09154,-0.78482 0.3125,-1.25 0.441631,-0.94821 0.805512,-1.68882 1.0625,-2.15625 0.05486,-0.0998 0.07934,-0.14239 0.125,-0.21875 0.02349,0.0312 0.0369,0.0259 0.0625,0.0625 a 0.56474891,0.56474891 0 0 0 0.03125,0.0312 c 0.447443,0.56521 0.742561,1.20477 0.90625,1.90625 0.161348,0.69153 0.315363,2.1005 0.40625,4.0625 6.92e-4,0.0149 -6.87e-4,0.0162 0,0.0312 -0.0014,0.0999 -0.01455,0.28399 0,0.53125 0.0397,0.87372 0.06702,1.40653 0.15625,1.78125 a 0.56474891,0.56474891 0 0 0 0.03125,0.0312 c 0.0669,0.23419 0.197604,0.4771 0.40625,0.625 0.208646,0.1479 0.457386,0.1875 0.6875,0.1875 0.362412,0 0.738508,-0.22629 0.9375,-0.53125 0.198992,-0.30496 0.282488,-0.64993 0.3125,-1.0625 0.08887,-1.54912 0.351018,-3.04561 0.78125,-4.4375 0.449956,-1.42703 0.882234,-2.4483 1.28125,-3.09375 0.157095,-0.25413 0.294218,-0.39337 0.40625,-0.53125 0.07341,0.29937 0.142039,0.71875 0.1875,1.34375 0.116371,1.40952 0.187486,2.91463 0.1875,4.53125 0.0065,0.81229 0.01567,1.44283 0.03125,1.90625 0.0078,0.23171 0.02007,0.4439 0.03125,0.59375 0.01118,0.14985 0.01892,0.22252 0.0625,0.375 a 0.56474891,0.56474891 0 0 0 0,0.0312 c 0.06216,0.18651 0.161256,0.38756 0.34375,0.53125 0.182494,0.14369 0.42188,0.1875 0.625,0.1875 0.214455,0 0.513682,0.0106 0.78125,-0.21875 0.311177,-0.26676 0.360153,-0.5351 0.4375,-0.90625 0.09824,-0.39304 0.111233,-0.86472 0.125,-1.4375 2.97e-4,-0.0124 -2.84e-4,-0.0188 0,-0.0312 0.02615,-0.6066 0.03123,-1.44037 0.03125,-2.5 -1.6e-5,-2.34725 -0.02607,-3.77245 -0.1875,-4.53125 -0.147085,-0.64709 -0.427943,-1.21062 -0.8125,-1.6875 -0.38361,-0.49546 -0.931851,-0.84374 -1.5625,-0.84375 -0.966656,10e-6 -1.8375,0.62344 -2.625,1.59375 -0.381507,0.47862 -0.712967,0.98477 -1,1.53125 -0.05914,-0.22265 -0.124548,-0.55861 -0.1875,-0.71875 -0.0027,-0.007 0.0028,-0.0242 0,-0.0312 l -0.03125,0 c -0.156951,-0.39538 -0.408699,-0.83444 -0.78125,-1.25 a 0.56474891,0.56474891 0 0 0 0,-0.0312 c -0.658587,-0.6872 -1.347537,-1.09374 -2.09375,-1.09375 -0.544811,10e-6 -0.979261,0.0947 -1.34375,0.375 l -0.03125,0 c -0.376708,0.28381 -0.604285,0.66813 -0.9375,1.28125 -0.05819,0.10668 -0.07793,0.16646 -0.125,0.25 -0.004,-0.0197 -0.0272,-0.0431 -0.03125,-0.0625 -0.0015,-0.01 0.0016,-0.0215 0,-0.0312 -0.03974,-0.2463 -0.122982,-0.50068 -0.1875,-0.75 -0.0023,-0.009 0.0024,-0.022 0,-0.0312 C 50.243621,411.51129 50.164905,411.23592 50,411 c -0.0048,-0.008 -0.02624,0.007 -0.03125,0 -0.168595,-0.2502 -0.444446,-0.46872 -0.78125,-0.46875 z" />
        <path
           sodipodi:type="inkscape:offset"
           inkscape:radius="0.87667805"
           inkscape:original="M 71.46875 411.34375 C 70.880955 411.34376 70.189961 411.47571 69.40625 411.75 C 69.118881 411.85451 68.766854 411.98133 68.375 412.125 C 67.983137 412.25563 67.677738 412.3591 67.46875 412.4375 C 67.272817 412.50282 67.060674 412.6012 66.8125 412.71875 C 66.577382 412.82325 66.398805 412.92676 66.28125 413.03125 C 66.176752 413.13575 66.07837 413.24951 66 413.40625 C 65.921622 413.54994 65.906248 413.72339 65.90625 413.90625 C 65.906248 414.20668 66.048449 414.34375 66.375 414.34375 C 66.636236 414.34375 67.05027 414.24819 67.625 414 C 68.212784 413.73877 68.875337 413.46693 69.59375 413.21875 C 70.325214 412.97058 70.998018 412.84376 71.625 412.84375 C 71.807859 412.84376 71.963123 412.89552 72.09375 413 C 72.224362 413.10451 72.369372 413.28821 72.5 413.5625 C 72.630611 413.83681 72.71593 414.28722 72.78125 414.875 C 72.859607 415.44974 72.906241 416.16916 72.90625 417.03125 C 72.749498 416.90063 72.552733 416.82045 72.34375 416.78125 C 72.330679 416.78125 72.268674 416.71132 72.125 416.59375 C 71.994373 416.46314 71.810669 416.3414 71.5625 416.25 C 71.327377 416.15855 71.021978 416.12501 70.65625 416.125 C 69.820279 416.12501 68.922268 416.36046 67.96875 416.84375 C 67.119719 417.26174 66.545297 417.67577 66.21875 418.09375 C 65.892199 418.51174 65.718748 419.01903 65.71875 419.59375 C 65.718748 420.5734 65.907577 421.19958 66.3125 421.5 C 66.547613 421.66981 66.92808 421.81994 67.4375 421.9375 C 67.946913 422.05503 68.38426 422.125 68.75 422.125 C 69.324721 422.125 70.033902 421.88161 70.84375 421.4375 C 71.666646 420.98034 72.269509 420.51455 72.6875 420.03125 C 72.6875 420.07044 72.69262 420.16882 72.71875 420.3125 C 72.74487 420.45619 72.781241 420.5597 72.78125 420.625 C 72.7943 420.69031 72.78637 420.79382 72.8125 420.9375 C 72.83861 421.08118 72.88012 421.20285 72.90625 421.28125 C 72.93236 421.34656 72.94262 421.44494 72.96875 421.5625 C 73.007928 421.68006 73.05455 421.7472 73.09375 421.8125 C 73.145988 421.86475 73.19774 421.95285 73.25 422.03125 C 73.315301 422.0966 73.40343 422.13015 73.46875 422.15625 C 73.547112 422.18235 73.60912 422.1875 73.6875 422.1875 C 73.81811 422.1875 73.99156 422.08399 74.1875 421.875 C 74.396481 421.65295 74.50511 421.39418 74.53125 421.09375 C 74.439803 420.17941 74.36986 418.90887 74.34375 417.25 C 74.317613 415.48664 74.30224 414.39699 74.25 414.03125 C 74.210804 413.66552 74.047605 413.28786 73.8125 412.84375 C 73.290012 411.85105 72.526761 411.34376 71.46875 411.34375 z M 70.28125 417.65625 C 70.816784 417.65626 71.235943 417.69494 71.5625 417.8125 C 71.902103 417.93006 72.10912 418.0336 72.1875 418.125 C 72.265868 418.21643 72.312491 418.29145 72.3125 418.34375 C 72.29943 418.44825 72.087286 418.69677 71.65625 419.0625 C 71.225198 419.42824 70.999993 419.68701 71 419.84375 L 70.5625 420.0625 C 70.262068 420.19313 69.899788 420.32507 69.46875 420.46875 C 69.0377 420.61247 68.693608 420.6875 68.40625 420.6875 C 68.210316 420.6875 67.97486 420.61756 67.6875 420.5 C 67.491567 420.40857 67.36474 420.34655 67.3125 420.28125 C 67.27331 420.20288 67.249996 420.04249 67.25 419.78125 C 67.249996 419.62451 67.28356 419.42774 67.375 419.21875 C 67.46643 419.00976 67.634755 418.77943 67.84375 418.53125 C 68.052737 418.28308 68.363262 418.07606 68.78125 417.90625 C 69.212289 417.73644 69.706518 417.65626 70.28125 417.65625 z "
           id="path3977"
           d="m 71.46875,410.46875 c -0.718983,10e-6 -1.49113,0.17034 -2.34375,0.46875 a 0.87676572,0.87676572 0 0 0 -0.03125,0 c -0.274922,0.1 -0.622705,0.20557 -1,0.34375 l 0,0.0312 c -0.0105,0.004 -0.02069,-0.004 -0.03125,0 -0.356041,0.11879 -0.653884,0.19915 -0.875,0.28125 l 0,0.0312 c -0.007,0.003 -0.02436,-0.003 -0.03125,0 -0.236982,0.082 -0.46228,0.17459 -0.6875,0.28125 -0.01257,0.006 -0.0186,0.0253 -0.03125,0.0312 -0.264475,0.11934 -0.528741,0.24083 -0.75,0.4375 a 0.87676572,0.87676572 0 0 0 -0.03125,0.0312 c -0.134902,0.1349 -0.303764,0.32628 -0.4375,0.59375 -0.197321,0.36175 -0.187503,0.67425 -0.1875,0.90625 -2e-6,0.28853 0.07396,0.68564 0.375,0.96875 0.301036,0.28311 0.682812,0.34375 0.96875,0.34375 0.475028,0 0.953526,-0.12978 1.59375,-0.40625 0.570621,-0.2536 1.217347,-0.51201 1.90625,-0.75 0.639841,-0.21708 1.191594,-0.33684 1.6875,-0.34375 0.01116,0.0131 0.08085,0.0604 0.15625,0.21875 0.03418,0.0718 0.126006,0.4779 0.1875,1.03125 a 0.87676572,0.87676572 0 0 0 0,0.0312 c 0.01649,0.12093 0.01776,0.33096 0.03125,0.46875 -0.02352,-0.009 -0.03846,-0.0224 -0.0625,-0.0312 -0.406655,-0.15817 -0.799437,-0.18749 -1.21875,-0.1875 -0.991119,10e-6 -2.023608,0.29048 -3.0625,0.8125 -0.0099,0.005 -0.02134,-0.005 -0.03125,0 l 0,0.0312 c -0.890695,0.44267 -1.578433,0.88914 -2.03125,1.46875 -0.445685,0.57048 -0.687503,1.28014 -0.6875,2.03125 -2e-6,1.0923 0.169161,2.05495 0.9375,2.625 a 0.87676572,0.87676572 0 0 0 0.03125,0 c 0.400209,0.28905 0.861925,0.42967 1.4375,0.5625 0.542247,0.12511 1.022448,0.21875 1.5,0.21875 0.822232,0 1.619362,-0.29832 2.5,-0.78125 a 0.87676572,0.87676572 0 0 0 0.03125,0 c 0.34547,-0.19193 0.526101,-0.42217 0.8125,-0.625 -0.05715,-0.14296 -0.0068,-0.015 0.03125,0.15625 a 0.87676572,0.87676572 0 0 0 0,0.0937 c 0.07348,0.22049 0.200943,0.37659 0.21875,0.40625 a 0.87676572,0.87676572 0 0 0 0.125,0.1875 c -0.09144,-0.0915 -0.0097,-0.0146 0.0625,0.0937 a 0.87676572,0.87676572 0 0 0 0.09375,0.125 c 0.238023,0.2382 0.477851,0.29116 0.53125,0.3125 A 0.87676572,0.87676572 0 0 0 73.1875,423 c 0.177109,0.059 0.383218,0.0625 0.5,0.0625 0.593795,0 0.851285,-0.30181 1.125,-0.59375 0.338036,-0.35918 0.553198,-0.84643 0.59375,-1.3125 a 0.87676572,0.87676572 0 0 0 0,-0.15625 c -0.08785,-0.87836 -0.161667,-2.10872 -0.1875,-3.75 -0.02589,-1.74664 -0.01289,-2.72731 -0.09375,-3.3125 -0.0011,-0.0103 0.0012,-0.021 0,-0.0312 -0.06459,-0.54493 -0.28316,-1.00011 -0.53125,-1.46875 -0.629047,-1.19516 -1.786763,-1.96874 -3.125,-1.96875 z m -1.1875,8.0625 c 0.318375,10e-6 0.444156,0.0332 0.625,0.0625 -0.141214,0.12799 -0.295485,0.24431 -0.40625,0.375 -0.03391,0.04 -0.02688,0.14519 -0.0625,0.1875 l -0.21875,0.0937 -0.0625,0.0312 c -0.254852,0.10808 -0.577103,0.2132 -0.96875,0.34375 -0.385098,0.1284 -0.646494,0.1875 -0.78125,0.1875 0.0086,0 -0.129804,-0.0564 -0.25,-0.0937 0.0055,-0.0414 0.0019,-0.0892 0.03125,-0.15625 0.02787,-0.0637 0.12626,-0.24759 0.3125,-0.46875 0.08487,-0.10078 0.288107,-0.24623 0.59375,-0.375 0.0079,-0.003 0.0233,0.003 0.03125,0 0.301821,-0.11483 0.675709,-0.18749 1.15625,-0.1875 z" />
        <path
           sodipodi:type="inkscape:offset"
           inkscape:radius="0.73626888"
           inkscape:original="M 78.625 411.5 C 78.468254 411.50001 78.349367 411.56996 78.21875 411.6875 C 78.009757 411.87038 77.86475 412.06433 77.8125 412.3125 C 77.76025 412.54762 77.718748 412.88146 77.71875 413.3125 C 77.718748 415.38936 77.905261 417.97475 78.21875 421.03125 C 78.21875 421.07044 78.20569 421.16088 78.21875 421.34375 C 78.24488 421.51355 78.249998 421.64035 78.25 421.71875 C 78.26306 421.78406 78.28637 421.90576 78.3125 422.0625 C 78.351678 422.20619 78.39831 422.3097 78.4375 422.375 C 78.476683 422.44031 78.52844 422.50235 78.59375 422.59375 C 78.659057 422.68518 78.75231 422.75515 78.84375 422.78125 C 78.948242 422.82045 79.056877 422.84375 79.1875 422.84375 C 79.514045 422.84375 79.76769 422.63161 79.9375 422.1875 C 80.107301 421.75646 80.314318 420.88176 80.5625 419.5625 C 80.758424 418.53061 81.322595 417.42558 82.25 416.25 C 83.190454 415.07443 84.046962 414.33168 84.84375 414.03125 C 85.444591 413.8092 85.74999 413.57375 85.75 413.3125 C 85.74998 413.23413 85.72155 413.13575 85.65625 413.03125 C 85.603992 412.92676 85.464108 412.82325 85.28125 412.71875 C 85.098373 412.60121 84.904418 412.53126 84.65625 412.53125 C 84.016205 412.53126 83.231956 412.84691 82.34375 413.5 C 81.455531 414.14004 80.777599 414.87766 80.28125 415.6875 C 80.085316 415.98793 79.948241 416.20007 79.84375 416.34375 C 79.726188 415.8474 79.581178 415.18766 79.4375 414.3125 C 79.30688 413.42429 79.249997 412.7333 79.25 412.25 C 79.249997 412.02795 79.180054 411.84938 79.0625 411.71875 C 78.944939 411.57503 78.794803 411.50001 78.625 411.5 z "
           id="path3979"
           d="m 78.625,410.75 c -0.375769,2e-5 -0.718471,0.20602 -0.90625,0.375 -0.276121,0.24162 -0.532103,0.59002 -0.625,1.03125 -0.06636,0.2986 -0.125002,0.67795 -0.125,1.15625 -2e-6,2.10398 0.221,4.68173 0.53125,7.71875 l -0.03125,0 c 0,-0.12438 -0.01677,0.14014 0,0.375 a 0.7363425,0.7363425 0 0 0 0.03125,0.0625 c 0.01995,0.12962 -10e-7,0.20362 0,0.25 a 0.7363425,0.7363425 0 0 0 0.03125,0.15625 c 0.01161,0.058 0.03788,0.16484 0.0625,0.3125 a 0.7363425,0.7363425 0 0 0 0,0.0625 c 0.05458,0.20016 0.13551,0.3613 0.21875,0.5 0.08051,0.13419 0.137539,0.21133 0.1875,0.28125 0.141479,0.19807 0.33683,0.34721 0.59375,0.4375 0.0089,0.003 0.02219,-0.003 0.03125,0 0.01553,0.005 0.01512,0.0267 0.03125,0.0312 0.160305,0.0531 0.337378,0.0937 0.53125,0.0937 0.322712,0 0.658181,-0.12911 0.90625,-0.34375 0.237015,-0.20507 0.386589,-0.4971 0.5,-0.78125 l 0.03125,0 c 0.0032,-0.008 -0.0031,-0.0232 0,-0.0312 0.216617,-0.55782 0.407918,-1.42994 0.65625,-2.75 0.165575,-0.87205 0.652873,-1.85532 1.53125,-2.96875 0.898735,-1.12342 1.696324,-1.77945 2.28125,-2 0.341744,-0.1263 0.622897,-0.27021 0.875,-0.46875 0.252103,-0.19854 0.531234,-0.51999 0.53125,-0.9375 -6.2e-5,-0.24163 -0.07494,-0.43535 -0.1875,-0.625 -0.0052,-0.0105 -0.02594,0.0101 -0.03125,0 -0.0048,-0.009 0.0048,-0.0225 0,-0.0312 -0.184117,-0.33386 -0.390264,-0.41821 -0.59375,-0.53125 -0.0054,-0.003 0.0053,-0.0283 0,-0.0312 -0.0075,-0.005 -0.0236,0.005 -0.03125,0 -0.267914,-0.16651 -0.624222,-0.31248 -1,-0.3125 -0.882105,10e-6 -1.786369,0.41645 -2.75,1.125 -0.710072,0.51167 -1.173041,1.15435 -1.65625,1.78125 -0.03254,-0.17605 -0.06086,-0.26991 -0.09375,-0.46875 -0.002,-0.0136 0.002,-0.0177 0,-0.0312 C 80.033464,413.34304 79.999997,412.66881 80,412.25 c -5e-6,-0.36657 -0.143711,-0.73112 -0.375,-1 -0.0058,-0.007 -0.02524,0.007 -0.03125,0 -0.234241,-0.27324 -0.59178,-0.49998 -0.96875,-0.5 z" />
        <path
           sodipodi:type="inkscape:offset"
           inkscape:radius="0.50507629"
           inkscape:original="M 99.84375 402.84375 C 99.386569 402.84377 99.05273 403.08435 98.84375 403.59375 C 98.713119 403.90725 98.63292 405.64127 98.59375 408.75 C 98.554549 411.8457 98.48974 413.60534 98.4375 414.0625 C 98.332994 413.98414 98.17773 413.82374 97.96875 413.5625 C 97.603004 413.13146 96.981954 412.65774 96.09375 412.1875 C 95.205528 411.71728 94.561164 411.50001 94.15625 411.5 C 93.80357 411.50001 93.389537 411.58533 92.90625 411.78125 C 92.422952 411.96413 91.928723 412.24621 91.40625 412.625 C 90.896829 413.0038 90.412854 413.47753 89.96875 414 C 89.537703 414.50942 89.162361 415.11229 88.875 415.84375 C 88.600698 416.56216 88.468749 417.32823 88.46875 418.125 C 88.468749 420.0843 89.408261 421.37302 91.25 422 C 91.837784 422.19589 92.37864 422.28125 92.875 422.28125 C 93.44972 422.28125 94.000829 422.21412 94.5625 422.03125 C 95.124156 421.84838 95.613259 421.58168 96.03125 421.28125 C 96.462285 420.98083 96.824565 420.69874 97.125 420.4375 C 97.438477 420.17627 97.720562 419.91749 97.96875 419.65625 C 98.229978 419.38195 98.36193 419.2631 98.375 419.25 C 98.42724 419.44593 98.49205 419.93504 98.53125 420.71875 C 98.583487 421.50247 98.673933 422.12352 98.84375 422.59375 C 99.013544 423.07705 99.332005 423.3125 99.75 423.3125 C 100.0896 423.3125 100.32505 423.16236 100.46875 422.875 C 100.61237 422.58763 100.68748 422.30555 100.6875 422.03125 C 100.68748 421.93982 100.62265 421.45584 100.53125 420.59375 C 100.4398 419.7186 100.40623 418.27461 100.40625 416.25 C 100.40625 414.73482 100.42955 413.05025 100.46875 411.15625 L 100.625 402.84375 L 99.84375 402.84375 z M 94 413.34375 C 94.274294 413.34375 94.773649 413.58715 95.53125 414.03125 C 96.132092 414.38393 96.71445 414.87816 97.25 415.53125 C 97.798592 416.18436 98.06249 416.67346 98.0625 417 C 97.957994 417.3135 97.417137 417.89585 96.4375 418.71875 C 95.039862 419.89433 93.906395 420.46875 93.03125 420.46875 C 92.574076 420.46875 92.103162 420.36012 91.59375 420.125 C 91.097391 419.88989 90.773804 419.68287 90.65625 419.5 C 90.499504 419.23876 90.437497 418.65641 90.4375 417.78125 C 90.437497 417.0106 90.476189 416.51637 90.59375 416.28125 C 90.789675 415.87633 91.372034 415.27066 92.3125 414.5 C 93.252955 413.72935 93.817125 413.34375 94 413.34375 z "
           id="path3981"
           d="m 99.84375,402.34375 c -0.634359,3e-5 -1.209275,0.43002 -1.46875,1.0625 -0.08918,0.21403 -0.09686,0.354 -0.125,0.625 -0.02814,0.271 -0.0416,0.62637 -0.0625,1.0625 -0.0418,0.87226 -0.07412,2.09873 -0.09375,3.65625 -0.03145,2.48389 -0.08402,3.47716 -0.125,4.21875 -0.422419,-0.40903 -0.872521,-0.82037 -1.625,-1.21875 -0.920634,-0.48738 -1.601922,-0.74999 -2.1875,-0.75 -0.434127,10e-6 -0.908449,0.098 -1.4375,0.3125 -0.537484,0.20338 -1.045205,0.50856 -1.59375,0.90625 a 0.5051268,0.5051268 0 0 0 -0.03125,0 c -0.548308,0.40772 -1.036196,0.9231 -1.5,1.46875 -0.464581,0.54905 -0.879943,1.18588 -1.1875,1.96875 -0.297728,0.77977 -0.437501,1.61622 -0.4375,2.46875 -10e-7,2.12076 1.13299,3.66561 3.125,4.34375 0.634199,0.21136 1.226984,0.3125 1.78125,0.3125 0.61405,0 1.224198,-0.0795 1.84375,-0.28125 0.617039,-0.2009 1.139166,-0.48577 1.59375,-0.8125 0.436172,-0.304 0.812115,-0.6041 1.125,-0.875 0.0062,-0.005 0.02506,0.005 0.03125,0 0.18791,-0.15713 0.331896,-0.341 0.5,-0.5 0.01708,0.18627 0.05026,0.19283 0.0625,0.4375 0.05363,0.80465 0.145136,1.45003 0.34375,2 0.218253,0.62123 0.767337,1.0625 1.375,1.0625 0.48847,0 0.94532,-0.29694 1.15625,-0.71875 0.17123,-0.34261 0.28122,-0.69602 0.28125,-1.0625 -4e-5,-0.1649 -0.004,-0.25935 -0.0312,-0.5 -0.0277,-0.24065 -0.0796,-0.57155 -0.125,-1 -0.0868,-0.83074 -0.12502,-2.26223 -0.125,-4.28125 0,-1.51 0.0233,-3.2018 0.0625,-5.09375 l 0.15625,-8.3125 a 0.5051268,0.5051268 0 0 0 -0.5,-0.5 l -0.78125,0 z m -5.8125,11.53125 c 0.01903,0.005 0.140254,4.6e-4 0.34375,0.0937 0.226107,0.10366 0.534486,0.28208 0.90625,0.5 0.546061,0.32052 1.092814,0.76412 1.59375,1.375 0.493084,0.58703 0.638702,1.00195 0.65625,1.09375 -0.03735,0.0604 -0.1095,0.15932 -0.3125,0.375 -0.249691,0.26528 -0.613809,0.6281 -1.09375,1.03125 -1.356718,1.14116 -2.439617,1.625 -3.09375,1.625 -0.377166,0 -0.763128,-0.10221 -1.21875,-0.3125 -0.469446,-0.22236 -0.735415,-0.46342 -0.71875,-0.4375 -0.02083,-0.0497 -0.156253,-0.60411 -0.15625,-1.4375 -3e-6,-0.75374 0.08298,-1.25971 0.09375,-1.28125 a 0.5051268,0.5051268 0 0 0 0.03125,0 c 0.111021,-0.22945 0.643317,-0.84053 1.5625,-1.59375 0.463873,-0.38012 0.83345,-0.66551 1.09375,-0.84375 0.13015,-0.0891 0.249124,-0.15477 0.3125,-0.1875 z" />
        <path
           sodipodi:type="inkscape:offset"
           inkscape:radius="0.73626888"
           inkscape:original="M 105.125 405.5 C 104.94213 405.50002 104.75842 405.59327 104.5625 405.75 C 104.37963 405.90676 104.2761 406.09559 104.25 406.34375 C 104.25 406.7095 104.37682 407.02003 104.625 407.28125 C 104.87318 407.52944 105.13195 407.65626 105.40625 407.65625 C 105.66749 407.65626 105.8745 407.52944 106.03125 407.28125 C 106.18796 407.03309 106.28125 406.751 106.28125 406.4375 C 106.28125 406.15015 106.13111 405.91982 105.84375 405.75 C 105.55638 405.58019 105.30786 405.50002 105.125 405.5 z M 105.125 410.6875 C 104.916 410.68751 104.6908 410.78077 104.46875 410.9375 C 104.19445 411.12038 104.0625 411.60948 104.0625 412.40625 C 104.0625 413.25529 104.11938 414.9478 104.25 417.46875 C 104.39368 419.97665 104.4972 421.32225 104.5625 421.53125 C 104.66699 421.80555 104.94908 421.9375 105.40625 421.9375 C 105.70667 421.9375 105.98876 421.83399 106.25 421.625 C 106.32836 421.46826 106.37499 420.80058 106.375 419.625 C 106.37499 417.99226 106.29993 416.22468 106.15625 414.34375 C 106.02563 412.46283 105.86523 411.32937 105.65625 410.9375 C 105.51256 410.7677 105.33399 410.68751 105.125 410.6875 z "
           id="path3983"
           d="m 105.125,404.75 c -0.43311,5e-5 -0.77125,0.22951 -1.03125,0.4375 -0.30043,0.25754 -0.51928,0.6828 -0.5625,1.09375 a 0.7363425,0.7363425 0 0 0 -0.0312,0.0625 c 0,0.53595 0.23115,1.05585 0.59375,1.4375 a 0.7363425,0.7363425 0 0 0 0,0.0312 c 0.34045,0.34046 0.81125,0.59377 1.3125,0.59375 0.49954,2e-5 0.99744,-0.31886 1.25,-0.71875 0.22077,-0.3496 0.375,-0.79044 0.375,-1.25 0,-0.54382 -0.37081,-1.05148 -0.8125,-1.3125 -0.36005,-0.21276 -0.69576,-0.37496 -1.09375,-0.375 z m 0,5.1875 c -0.41326,2e-5 -0.76826,0.17254 -1.0625,0.375 l 0,0.0312 c -0.008,0.005 -0.0237,-0.005 -0.0312,0 -0.31785,0.22906 -0.50274,0.57518 -0.59375,0.90625 -0.0947,0.34431 -0.125,0.71722 -0.125,1.15625 0,0.88192 0.0566,2.56682 0.1875,5.09375 0.072,1.25652 0.13482,2.22138 0.1875,2.90625 0.0263,0.34244 0.0712,0.63581 0.0937,0.84375 0.0226,0.20794 0.0269,0.28595 0.0937,0.5 a 0.7363425,0.7363425 0 0 0 0,0.0312 c 0.11673,0.30642 0.37371,0.58369 0.65625,0.71875 0.28254,0.13506 0.57558,0.1875 0.875,0.1875 0.46954,0 0.94197,-0.20358 1.3125,-0.5 a 0.7363425,0.7363425 0 0 0 0.1875,-0.21875 c 0.10002,-0.20007 0.1048,-0.30232 0.125,-0.4375 0.0202,-0.13518 0.0197,-0.28886 0.0312,-0.46875 0.0232,-0.35977 0.0625,-0.83998 0.0625,-1.4375 -1e-5,-1.6553 -0.10514,-3.44731 -0.25,-5.34375 l 0.0312,0 c -0.066,-0.95104 -0.16295,-1.71413 -0.25,-2.3125 -0.0871,-0.59837 -0.13737,-0.98801 -0.34375,-1.375 a 0.7363425,0.7363425 0 0 0 -0.0937,-0.125 c -0.26416,-0.31216 -0.69644,-0.53123 -1.09375,-0.53125 z" />
        <path
           sodipodi:type="inkscape:offset"
           inkscape:radius="0.73522413"
           inkscape:original="M 115.25 411.59375 L 113.28125 411.78125 C 112.18404 412.01637 111.27577 412.52085 110.53125 413.34375 C 109.78671 414.16666 109.40625 414.85253 109.40625 415.375 C 109.40625 415.89748 109.73496 416.40478 110.375 416.875 C 111.01504 417.34524 111.51439 417.6091 111.90625 417.6875 C 112.15443 417.73975 112.54002 417.88476 113.0625 418.09375 C 113.58497 418.28968 114.08713 418.43188 114.53125 418.5625 C 114.80554 418.64088 115.01768 418.76769 115.1875 418.9375 C 115.37036 419.1073 115.49205 419.23926 115.53125 419.34375 C 115.57045 419.43518 115.56249 419.5103 115.5625 419.5625 C 115.56249 419.87599 115.35035 420.31847 114.90625 420.90625 C 114.47519 421.48098 113.99122 421.78125 113.46875 421.78125 C 113.05076 421.78125 112.60829 421.67262 112.125 421.4375 C 111.6417 421.18932 111.33117 420.93055 111.1875 420.65625 C 110.93932 420.19909 110.63904 419.96875 110.3125 419.96875 C 110.14269 419.96875 110.02381 420.04894 109.90625 420.21875 C 109.78871 420.37549 109.71875 420.5592 109.71875 420.78125 C 109.71875 421.12087 109.84045 421.4962 110.0625 421.875 C 110.28456 422.24073 110.52513 422.48132 110.8125 422.625 C 111.16517 422.78174 111.67246 422.92675 112.3125 423.03125 C 112.9656 423.14879 113.50133 423.18749 113.90625 423.1875 C 114.46791 423.18749 114.9957 422.97023 115.53125 422.5 C 116.06678 422.04283 116.44213 421.58729 116.625 421.15625 C 116.84705 420.6599 116.93749 420.11391 116.9375 419.5 C 116.93749 418.79466 116.67872 418.23561 116.15625 417.84375 C 115.63377 417.4519 114.684 417.06118 113.3125 416.65625 C 112.81614 416.51258 112.39698 416.33912 112.03125 416.15625 C 111.67858 415.97339 111.43799 415.81812 111.28125 415.6875 C 111.13753 415.54382 111.06249 415.417 111.0625 415.3125 C 111.06249 415.15576 111.22801 414.91518 111.59375 414.5625 C 111.95948 414.19677 112.46677 413.82656 113.09375 413.5 C 113.73378 413.1604 114.3497 413.00001 114.9375 413 C 115.36854 413.00001 115.71263 413.15528 116 413.46875 C 116.30042 413.76919 116.58763 413.93751 116.875 413.9375 C 117.21461 413.93751 117.40624 413.76406 117.40625 413.4375 C 117.40624 413.20239 117.16285 412.82193 116.71875 412.3125 C 116.44444 411.99902 116.21411 411.79715 116.03125 411.71875 C 115.84837 411.6273 115.60266 411.59376 115.25 411.59375 z "
           id="path3985"
           d="m 115.25,410.84375 a 0.73529765,0.73529765 0 0 0 -0.0625,0.0312 l -1.96875,0.1875 a 0.73529765,0.73529765 0 0 0 -0.0937,0 c -1.22661,0.26285 -2.28119,0.84861 -3.125,1.78125 -0.7973,0.88122 -1.34375,1.65186 -1.34375,2.53125 0,0.83085 0.53467,1.54526 1.28125,2.09375 0.68133,0.50057 1.22729,0.82042 1.8125,0.9375 0.13006,0.0274 0.5157,0.16878 1.03125,0.375 a 0.73529765,0.73529765 0 0 0 0.0312,0 c 0.55798,0.20925 1.06123,0.37095 1.5,0.5 a 0.73529765,0.73529765 0 0 0 0.0312,0 c 0.16915,0.0483 0.22975,0.10476 0.3125,0.1875 a 0.73529765,0.73529765 0 0 0 0.0312,0 c 0.12711,0.11803 0.13433,0.13096 0.125,0.0937 0,-0.0182 -0.095,0.37022 -0.5,0.90625 -0.34632,0.46175 -0.60297,0.5625 -0.84375,0.5625 -0.28229,0 -0.61122,-0.0656 -1,-0.25 -0.0132,-0.007 -0.0185,0.007 -0.0312,0 -0.38488,-0.20412 -0.56489,-0.41364 -0.59375,-0.46875 -0.31741,-0.58469 -0.85896,-1.09375 -1.53125,-1.09375 -0.392,0 -0.77474,0.32765 -0.96875,0.59375 l -0.0312,0 c -0.1899,0.26308 -0.34375,0.60279 -0.34375,0.96875 0,0.51526 0.19882,1.00827 0.46875,1.46875 0.27008,0.44482 0.59704,0.81416 1.03125,1.03125 a 0.73529765,0.73529765 0 0 0 0.0312,0 c 0.43799,0.19466 1.00168,0.35678 1.6875,0.46875 0.69439,0.12497 1.267,0.18749 1.71875,0.1875 0.74293,-10e-6 1.46749,-0.3322 2.09375,-0.875 l 0,-0.0312 c 0.56754,-0.48752 1.02993,-0.99223 1.28125,-1.5625 0.005,-0.0124 0.026,-0.0188 0.0312,-0.0312 l -0.0312,0 c 0.26446,-0.60396 0.40624,-1.26184 0.40625,-1.9375 -1e-5,-0.88516 -0.39598,-1.72666 -1.09375,-2.25 -0.67695,-0.5077 -1.65622,-0.8973 -3.0625,-1.3125 -0.45073,-0.13046 -0.82516,-0.27195 -1.15625,-0.4375 -0.21137,-0.10959 -0.29522,-0.17496 -0.40625,-0.25 0.0484,-0.0528 0.0551,-0.0888 0.125,-0.15625 a 0.73529765,0.73529765 0 0 0 0.0312,0 c 0.30078,-0.30078 0.74333,-0.64105 1.3125,-0.9375 0.55218,-0.29299 1.04594,-0.40624 1.5,-0.40625 0.25449,10e-6 0.35971,0.0316 0.53125,0.21875 a 0.73529765,0.73529765 0 0 0 0,0.0312 c 0.369,0.36903 0.83177,0.68752 1.40625,0.6875 0.29498,10e-6 0.64512,-0.10048 0.90625,-0.34375 0.26113,-0.24327 0.37499,-0.59916 0.375,-0.90625 -2e-5,-0.37124 -0.16214,-0.60059 -0.3125,-0.84375 -0.15036,-0.24316 -0.32459,-0.4771 -0.5625,-0.75 -0.28919,-0.33048 -0.5448,-0.61035 -0.90625,-0.78125 -0.019,-0.009 -0.0435,0.009 -0.0625,0 -0.33558,-0.15261 -0.68461,-0.21874 -1.0625,-0.21875 z" />
        <path
           sodipodi:type="inkscape:offset"
           inkscape:radius="0.79859573"
           inkscape:original="M 15.71875 427.34375 C 15.261569 427.34377 14.92773 427.58435 14.71875 428.09375 C 14.588119 428.40726 14.50793 430.11002 14.46875 433.21875 C 14.42955 436.31445 14.39599 438.10534 14.34375 438.5625 C 14.239243 438.48413 14.08398 438.2925 13.875 438.03125 C 13.509254 437.60021 12.856954 437.15774 11.96875 436.6875 C 11.080528 436.21728 10.436164 436.00001 10.03125 436 C 9.6785704 436.00001 9.2645364 436.08534 8.78125 436.28125 C 8.297952 436.46413 7.8037238 436.74621 7.28125 437.125 C 6.7718296 437.50381 6.2878535 437.94628 5.84375 438.46875 C 5.4127027 438.97818 5.0686111 439.61229 4.78125 440.34375 C 4.5069472 441.06217 4.3749986 441.82822 4.375 442.625 C 4.3749986 444.58429 5.2832607 445.87303 7.125 446.5 C 7.7127837 446.69589 8.2536401 446.78125 8.75 446.78125 C 9.3247201 446.78125 9.9070786 446.68287 10.46875 446.5 C 11.030406 446.31714 11.519509 446.08168 11.9375 445.78125 C 12.368536 445.48083 12.730815 445.19874 13.03125 444.9375 C 13.344727 444.67626 13.626812 444.41749 13.875 444.15625 C 14.136228 443.88195 14.26818 443.73185 14.28125 443.71875 C 14.33349 443.91469 14.36705 444.40378 14.40625 445.1875 C 14.458487 445.97121 14.580183 446.62352 14.75 447.09375 C 14.919794 447.57704 15.207005 447.8125 15.625 447.8125 C 15.964598 447.8125 16.200055 447.66236 16.34375 447.375 C 16.487422 447.08764 16.562487 446.80555 16.5625 446.53125 C 16.562487 446.43981 16.52892 445.95584 16.4375 445.09375 C 16.346049 444.2186 16.281237 442.7746 16.28125 440.75 C 16.28124 439.23482 16.30455 437.51899 16.34375 435.625 L 16.5 427.34375 L 15.71875 427.34375 z M 9.875 437.84375 C 10.149294 437.84376 10.679899 438.08715 11.4375 438.53125 C 12.038342 438.88393 12.58945 439.37816 13.125 440.03125 C 13.673592 440.68435 13.968739 441.17345 13.96875 441.5 C 13.864243 441.81349 13.323387 442.3646 12.34375 443.1875 C 10.946112 444.36308 9.8126449 444.96875 8.9375 444.96875 C 8.4803258 444.96875 7.9781616 444.86011 7.46875 444.625 C 6.9723913 444.38988 6.680054 444.15162 6.5625 443.96875 C 6.4057526 443.70752 6.3124967 443.1564 6.3125 442.28125 C 6.3124967 441.5106 6.3824389 441.01637 6.5 440.78125 C 6.6959258 440.37633 7.2470343 439.77067 8.1875 439 C 9.1279553 438.22936 9.6921257 437.84376 9.875 437.84375 z "
           id="path3967"
           d="m 15.71875,426.53125 c -0.737325,3e-5 -1.46118,0.54599 -1.75,1.25 -0.120215,0.28851 -0.09585,0.44123 -0.125,0.71875 -0.02915,0.27752 -0.07269,0.62696 -0.09375,1.0625 -0.04213,0.87108 -0.0741,2.09686 -0.09375,3.65625 -0.01959,1.54691 -0.01155,2.76976 -0.03125,3.65625 -0.40256,-0.30464 -0.725008,-0.61176 -1.28125,-0.90625 -0.93947,-0.49735 -1.621932,-0.78123 -2.3125,-0.78125 -0.4722892,10e-6 -0.9878135,0.12696 -1.53125,0.34375 -0.010569,0.004 -0.02065,-0.004 -0.03125,0 -0.5604947,0.21517 -1.1005298,0.53461 -1.65625,0.9375 -0.5540167,0.41197 -1.0770663,0.89766 -1.5625,1.46875 a 0.79867559,0.79867559 0 0 0 -0.03125,0 c -0.5067582,0.59891 -0.8782414,1.3378 -1.1875,2.125 -0.3113401,0.81542 -0.4687516,1.67755 -0.46875,2.5625 -8e-7,1.10305 0.2759217,2.10474 0.84375,2.90625 0.5678283,0.80151 1.4277723,1.36438 2.46875,1.71875 0.6611726,0.22035 1.2870827,0.34375 1.875,0.34375 0.6658553,0 1.332737,-0.13668 1.96875,-0.34375 0.623773,-0.20308 1.190345,-0.45517 1.6875,-0.8125 0.437743,-0.30509 0.805794,-0.5995 1.125,-0.875 0.0098,-0.008 0.02153,-0.0228 0.03125,-0.0312 0.03462,-0.029 0.05973,-0.0646 0.09375,-0.0937 0.06112,0.73089 0.158671,1.38445 0.34375,1.90625 0.0047,0.0134 0.02632,0.0179 0.03125,0.0312 0.118408,0.32134 0.283522,0.64595 0.5625,0.875 0.290582,0.23858 0.672301,0.375 1.03125,0.375 0.574977,0 1.187493,-0.40629 1.4375,-0.90625 0.187401,-0.37482 0.31248,-0.76753 0.3125,-1.1875 -2e-5,-0.14324 -0.0108,-0.25219 -0.03125,-0.5 -0.02045,-0.24781 -0.07872,-0.59481 -0.125,-1.03125 -0.08607,-0.82363 -0.125013,-2.24245 -0.125,-4.25 -10e-6,-1.50699 0.02337,-3.20319 0.0625,-5.09375 a 0.79867559,0.79867559 0 0 0 0,-0.0312 l 0.15625,-8.28125 A 0.79867559,0.79867559 0 0 0 16.5,426.53125 l -0.78125,0 z M 9.9375,438.6875 c 0.0076,0.007 0.052248,-0.0115 0.21875,0.0625 0.217177,0.0966 0.511461,0.25565 0.875,0.46875 0.503801,0.29572 0.978271,0.71437 1.46875,1.3125 0.463628,0.55195 0.566866,0.90552 0.59375,0.875 -0.04578,0.0646 -0.05176,0.0472 -0.1875,0.1875 -0.23808,0.24608 -0.584489,0.56722 -1.0625,0.96875 -1.338274,1.12565 -2.3995663,1.59375 -2.90625,1.59375 -0.3306587,0 -0.7119082,-0.0593 -1.125,-0.25 -0.3917398,-0.18556 -0.5707686,-0.36672 -0.5625,-0.34375 0.026319,0.0439 -0.1250031,-0.46283 -0.125,-1.28125 -3.1e-6,-0.72233 0.1197231,-1.2082 0.09375,-1.15625 0.076181,-0.15744 0.5686391,-0.7624 1.46875,-1.5 0.4601812,-0.37709 0.8457432,-0.67393 1.09375,-0.84375 0.076631,-0.0525 0.1060892,-0.0637 0.15625,-0.0937 z" />
        <path
           sodipodi:type="inkscape:offset"
           inkscape:radius="1.3834251"
           inkscape:original="M 23.53125 432.59375 C 23.387563 432.59375 23.28918 432.612 23.25 432.625 C 22.962632 432.67726 22.755614 432.86096 22.625 433.1875 C 22.49437 433.51406 22.437496 433.86609 22.4375 434.21875 C 22.437496 434.45388 22.47106 434.66089 22.5625 434.84375 C 22.666989 435.02663 22.75512 435.34228 22.78125 435.8125 C 22.807369 436.42643 22.967758 436.95702 23.28125 437.375 C 23.607793 437.77993 23.951885 437.96876 24.34375 437.96875 C 24.683354 437.96876 24.913685 437.83681 25.03125 437.5625 C 25.096553 437.43189 25.213123 437.01785 25.34375 436.3125 C 25.474362 435.5941 25.601185 435.16188 25.71875 435.03125 C 25.875486 434.86145 26.00231 434.626 26.09375 434.3125 C 26.198234 433.99902 26.249992 433.70388 26.25 433.46875 C 26.249992 433.25977 26.174924 433.0812 26.03125 432.9375 C 25.926747 432.88527 25.569593 432.8415 24.96875 432.75 C 24.367894 432.65855 23.883917 432.59376 23.53125 432.59375 z "
           id="path3965"
           d="m 23.53125,431.21875 c -0.19247,0 -0.349575,0.0208 -0.53125,0.0625 l 0,-0.0312 c -0.03633,0.007 -0.05775,0.0534 -0.09375,0.0625 -0.03625,0.0104 -0.05157,-0.014 -0.09375,0 l 0,0.0312 c -0.653448,0.20335 -1.240642,0.77347 -1.46875,1.34375 -0.206536,0.51632 -0.281256,1.02984 -0.28125,1.53125 -6e-6,0.3668 0.03233,0.8147 0.25,1.25 a 1.3835635,1.3835635 0 0 0 0.0625,0.0625 c -0.06944,-0.12154 0.01278,0.0113 0.03125,0.34375 0.0349,0.8204 0.26647,1.65739 0.78125,2.34375 a 1.3835635,1.3835635 0 0 0 0.03125,0.0312 c 0.492724,0.611 1.288689,1.09377 2.125,1.09375 0.673071,2e-5 1.562627,-0.50037 1.90625,-1.1875 l 0.03125,0.0312 c 0.02012,-0.0402 0.01536,-0.0586 0.03125,-0.0937 0.100102,-0.22131 0.131931,-0.37824 0.1875,-0.59375 0.06439,-0.24971 0.148845,-0.56003 0.21875,-0.9375 0.05994,-0.32971 0.115689,-0.58025 0.15625,-0.71875 0.04056,-0.1385 0.158275,-0.18976 -0.125,0.125 0.320434,-0.34714 0.488639,-0.77887 0.625,-1.21875 l 0.03125,0 c 0.0068,-0.0204 -0.0065,-0.0422 0,-0.0625 0.131258,-0.40862 0.218736,-0.80141 0.21875,-1.21875 -2.1e-5,-0.54024 -0.246517,-1.12145 -0.625,-1.5 a 1.3835635,1.3835635 0 0 0 -0.34375,-0.28125 c -0.477775,-0.23879 -0.546567,-0.15436 -0.75,-0.1875 -0.203433,-0.0331 -0.426203,-0.0804 -0.71875,-0.125 -0.614013,-0.0935 -1.134182,-0.15624 -1.65625,-0.15625 z" />
      </g>
      <g
         transform="matrix(0.89741926,-0.44117872,0.44117872,0.89741926,0,0)"
         style="font-size:31.30516815px;font-style:normal;font-variant:normal;font-weight:bold;font-stretch:normal;text-align:start;line-height:125%;letter-spacing:0px;word-spacing:0px;writing-mode:lr-tb;text-anchor:start;fill:#000000;fill-opacity:1;stroke:none;font-family:Purisa;-inkscape-font-specification:Purisa Bold"
         id="text3826-3">
        <path
           sodipodi:type="inkscape:offset"
           inkscape:radius="1.3599595"
           inkscape:original="M 40.5 431.9375 C 39.853012 431.93753 39.385918 432.08284 39.09375 432.375 C 38.822426 432.64633 38.542169 432.78128 38.25 432.78125 C 37.769975 432.78128 37.230222 433.05115 36.625 433.59375 C 36.019756 434.13639 35.635701 434.42705 35.46875 434.46875 C 34.800897 434.51051 33.804429 434.96723 32.46875 435.84375 C 31.028707 436.80379 29.866161 438.25698 28.96875 440.21875 C 28.071333 442.18056 27.624998 444.16322 27.625 446.125 C 27.624998 447.83635 28.060953 449.64246 28.9375 451.5625 C 29.81404 453.48256 30.852028 454.89421 32.0625 455.8125 C 32.688596 456.25077 33.19721 456.54141 33.59375 456.6875 C 34.011144 456.85444 34.530138 456.9375 35.15625 456.9375 C 35.991044 456.9375 36.852574 456.86484 37.75 456.71875 C 38.647402 456.59353 39.249435 456.42746 39.5625 456.21875 C 39.645966 456.15614 39.72901 456.05234 39.8125 455.90625 C 39.916837 455.76012 40.01026 455.6875 40.09375 455.6875 C 40.636358 455.6875 41.26953 455.25155 42 454.375 C 42.730437 453.49846 43.436379 452.38781 44.0625 451.03125 C 44.709454 449.6747 45.249208 448.08657 45.6875 446.25 C 46.125752 444.39257 46.34373 442.57598 46.34375 440.84375 C 46.34373 438.13065 45.814355 435.98202 44.75 434.375 C 43.706476 432.74715 42.273943 431.93753 40.5 431.9375 z M 40.6875 435.78125 C 41.167497 435.78127 41.510034 435.84355 41.71875 435.96875 C 41.990046 436.24008 42.39486 436.90439 42.9375 437.96875 C 43.500975 439.01227 43.812481 439.79076 43.8125 440.3125 C 43.812481 440.70905 43.563255 441.74703 43.125 443.4375 C 42.686711 445.10712 42.406454 446.43586 42.28125 447.375 C 42.135143 448.33503 41.512351 449.55986 40.40625 451.0625 C 39.320991 452.54428 38.449081 453.40581 37.78125 453.65625 C 37.134265 453.88582 36.573752 454 36.09375 454 C 34.194562 454 32.699859 452.52606 31.59375 449.5625 C 31.092862 448.24769 30.843745 447.25122 30.84375 446.5625 C 30.843745 446.20772 30.947543 445.38771 31.15625 444.09375 C 31.907567 439.98235 33.858985 437.4288 37.03125 436.46875 C 38.533885 436.00963 39.748331 435.78127 40.6875 435.78125 z "
           id="path3963"
           d="m 40.5,430.5625 c -0.850584,4e-5 -1.729793,0.19856 -2.375,0.84375 -0.09965,0.0997 -0.0017,-10e-6 0.125,0 -0.989674,6e-5 -1.793675,0.52624 -2.53125,1.1875 -0.286029,0.25644 -0.514224,0.42377 -0.65625,0.53125 -0.142026,0.10748 -0.336896,0.13101 0.0625,0.0312 l 0,0.0312 c -1.097051,0.1372 -2.09289,0.66938 -3.40625,1.53125 -1.685983,1.124 -3.02345,2.80273 -4,4.9375 -0.970646,2.12189 -1.468752,4.30069 -1.46875,6.46875 -2e-6,1.94231 0.497894,3.94183 1.4375,6 0.940403,2.05995 2.11561,3.68361 3.5625,4.78125 a 1.3600955,1.3600955 0 0 0 0.03125,0.0312 c 0.664508,0.46516 1.233561,0.78145 1.8125,1 0.01189,0.004 0.01934,0.0269 0.03125,0.0312 l 0,-0.0312 c 0.626134,0.2452 1.29581,0.375 2.03125,0.375 0.903635,0 1.829389,-0.0966 2.78125,-0.25 0.01179,-0.002 0.01954,0.002 0.03125,0 0.959472,-0.1342 1.646686,-0.25404 2.34375,-0.71875 a 1.3600955,1.3600955 0 0 0 0.0625,-0.0312 c 0.204661,-0.15352 0.295206,-0.30992 0.40625,-0.46875 0.875398,-0.24506 1.590443,-0.80229 2.25,-1.59375 0.808093,-0.96973 1.584074,-2.19103 2.25,-3.625 0.0067,-0.0145 0.02455,-0.0167 0.03125,-0.0312 0.69086,-1.45582 1.235158,-3.13581 1.6875,-5.03125 0.460617,-1.95222 0.718729,-3.87244 0.71875,-5.71875 -2.1e-5,-2.87323 -0.569948,-5.29318 -1.8125,-7.1875 -0.0084,-0.0131 -0.02282,-0.0183 -0.03125,-0.0312 -1.239557,-1.90765 -3.202062,-3.06246 -5.375,-3.0625 z m 0.375,6.5625 c 0.07015,0.11006 0.382656,0.56434 0.84375,1.46875 A 1.3600955,1.3600955 0 0 0 41.75,438.625 c 0.528682,0.97909 0.687501,1.70702 0.6875,1.6875 4e-6,-0.0866 -0.0146,0.29062 -0.125,0.78125 -0.110398,0.49063 -0.282126,1.1596 -0.5,2 -0.443867,1.69087 -0.735662,3.02923 -0.875,4.0625 -0.001,0.008 0.001,0.0237 0,0.0312 -0.09133,0.56597 -0.591823,1.65893 -1.625,3.0625 -1.028568,1.40438 -1.927896,2.09796 -2,2.125 -0.547626,0.19431 -0.954414,0.25 -1.21875,0.25 -0.597777,0 -1.048912,-0.15023 -1.59375,-0.6875 -0.544838,-0.53727 -1.116291,-1.48078 -1.625,-2.84375 -0.472913,-1.24138 -0.656253,-2.17048 -0.65625,-2.53125 -10e-7,-0.0883 0.08158,-0.97192 0.28125,-2.21875 0.0028,-0.0173 -0.0028,-0.0138 0,-0.0312 0.697308,-3.77824 2.264855,-5.7224 4.9375,-6.53125 1.42732,-0.43611 2.531256,-0.62498 3.25,-0.625 0.199016,10e-6 0.135877,-0.0413 0.1875,-0.0312 z" />
        <path
           sodipodi:type="inkscape:offset"
           inkscape:radius="1.9232732"
           inkscape:original="M 52.25 425.46875 C 51.936944 425.46878 51.687827 425.58296 51.5 425.8125 C 51.333036 426.02123 51.187717 426.56109 51.0625 427.375 C 50.937279 428.18896 50.874996 429.35151 50.875 430.875 C 50.874996 432.52376 50.937276 434.21568 51.0625 435.96875 C 51.333808 439.26625 51.634825 443.14843 51.96875 447.59375 C 52.260928 451.80951 52.499665 454.34221 52.6875 455.21875 C 52.896196 456.07442 53.35291 456.5 54.0625 456.5 C 54.855557 456.5 55.249993 456.1367 55.25 455.40625 C 55.249993 455.3019 55.094294 452.95605 54.78125 448.34375 C 54.489061 443.73147 54.167286 438.97737 53.8125 434.09375 C 53.478573 429.21017 53.260595 426.53205 53.15625 426.09375 C 53.051894 425.67638 52.750878 425.46878 52.25 425.46875 z "
           id="path3961"
           d="m 52.25,423.53125 c -0.780605,7e-5 -1.732311,0.42984 -2.25,1.0625 a 1.9234655,1.9234655 0 0 0 0,0.0312 c -0.418693,0.52343 -0.489198,0.84161 -0.59375,1.21875 -0.104552,0.37714 -0.180107,0.79569 -0.25,1.25 -0.152495,0.99125 -0.218754,2.20534 -0.21875,3.78125 -4e-6,1.6972 0.09049,3.42316 0.21875,5.21875 a 1.9234655,1.9234655 0 0 0 0,0.0312 c 0.270002,3.28163 0.573594,7.166 0.90625,11.59375 0.0012,0.0166 -0.0011,0.0147 0,0.0312 0.291518,4.2037 0.474164,6.5878 0.75,7.875 a 1.9234655,1.9234655 0 0 0 0,0.0625 c 0.163484,0.6703 0.471049,1.35512 1.0625,1.90625 0.591451,0.55113 1.448208,0.84375 2.1875,0.84375 0.690213,0 1.518558,-0.16512 2.1875,-0.78125 0.668942,-0.61613 0.937493,-1.5386 0.9375,-2.25 -1.7e-5,-0.25194 -0.02604,-0.161 -0.03125,-0.25 -0.0052,-0.089 -0.0214,-0.21995 -0.03125,-0.375 -0.01971,-0.31011 -0.02341,-0.75479 -0.0625,-1.34375 -0.07818,-1.17792 -0.218445,-2.91211 -0.375,-5.21875 -0.29255,-4.61797 -0.613517,-9.36023 -0.96875,-14.25 -0.167274,-2.44633 -0.295664,-4.33676 -0.40625,-5.6875 -0.05529,-0.67537 -0.113463,-1.21225 -0.15625,-1.625 -0.04279,-0.41275 -0.03166,-0.60791 -0.125,-1 a 1.9234655,1.9234655 0 0 0 0,-0.0312 c -0.139532,-0.55805 -0.533546,-1.2074 -1.09375,-1.59375 -0.560204,-0.38635 -1.17137,-0.49997 -1.6875,-0.5 z" />
        <path
           sodipodi:type="inkscape:offset"
           inkscape:radius="1.9964893"
           inkscape:original="M 62.78125 429.625 C 62.489064 429.62503 62.188048 429.74959 61.875 430 C 61.582815 430.25047 61.41674 430.57225 61.375 430.96875 C 61.374997 431.55314 61.572214 432.05137 61.96875 432.46875 C 62.365277 432.86531 62.780473 433.06252 63.21875 433.0625 C 63.636147 433.06252 63.968302 432.86531 64.21875 432.46875 C 64.469185 432.07224 64.593743 431.62591 64.59375 431.125 C 64.593743 430.66588 64.365386 430.30259 63.90625 430.03125 C 63.447102 429.75996 63.073426 429.62503 62.78125 429.625 z M 62.75 437.90625 C 62.416074 437.90627 62.073538 438.03083 61.71875 438.28125 C 61.280475 438.57345 61.062497 439.35194 61.0625 440.625 C 61.062497 441.98157 61.166296 444.69083 61.375 448.71875 C 61.604568 452.72582 61.770646 454.88483 61.875 455.21875 C 62.041957 455.65702 62.488292 455.875 63.21875 455.875 C 63.698757 455.875 64.145091 455.70893 64.5625 455.375 C 64.687711 455.12456 64.749993 454.06581 64.75 452.1875 C 64.749993 449.57874 64.635814 446.7553 64.40625 443.75 C 64.197542 440.74472 63.927666 438.93862 63.59375 438.3125 C 63.364174 438.0412 63.083917 437.90627 62.75 437.90625 z "
           id="path3959"
           d="m 62.78125,427.625 c -0.859453,9e-5 -1.607882,0.37386 -2.15625,0.8125 a 1.9966889,1.9966889 0 0 0 -0.0625,0.0312 c -0.649858,0.55708 -1.099809,1.44825 -1.1875,2.28125 a 1.9966889,1.9966889 0 0 0 0,0.21875 c -5e-6,1.03357 0.440939,2.12209 1.15625,2.875 a 1.9966889,1.9966889 0 0 0 0.03125,0.0312 c 0.65523,0.65528 1.619013,1.18755 2.65625,1.1875 1.04631,5e-5 2.171067,-0.71353 2.6875,-1.53125 0.45205,-0.71572 0.687488,-1.57439 0.6875,-2.40625 -1.7e-5,-1.12111 -0.77477,-2.29156 -1.65625,-2.8125 a 1.9966889,1.9966889 0 0 0 -0.03125,0 c -0.617979,-0.36514 -1.218332,-0.68741 -2.125,-0.6875 z M 62.75,435.90625 c -0.80546,5e-5 -1.538842,0.31759 -2.125,0.71875 -0.0181,0.0124 -0.04469,0.0187 -0.0625,0.0312 l 0,0.0312 c -0.717445,0.51273 -1.071233,1.23655 -1.25,1.875 -0.185265,0.66166 -0.250002,1.31202 -0.25,2.0625 -3e-6,1.45842 0.103172,4.14754 0.3125,8.1875 a 1.9966889,1.9966889 0 0 0 0,0.0312 c 0.115185,2.01054 0.227396,3.5499 0.3125,4.65625 0.04255,0.55317 0.08729,0.99604 0.125,1.34375 0.03771,0.34771 -0.0076,0.44453 0.15625,0.96875 A 1.9966889,1.9966889 0 0 0 60,455.9375 c 0.254974,0.66932 0.860107,1.26525 1.46875,1.5625 0.608643,0.29725 1.186177,0.375 1.75,0.375 0.940496,0 1.886355,-0.37158 2.59375,-0.9375 a 1.9966889,1.9966889 0 0 0 0.53125,-0.65625 c 0.253313,-0.50666 0.245194,-0.71683 0.28125,-0.96875 0.03606,-0.25192 0.04486,-0.51266 0.0625,-0.8125 0.03528,-0.59968 0.0625,-1.35128 0.0625,-2.3125 -7e-6,-2.65733 -0.11247,-5.525 -0.34375,-8.5625 -8.72e-4,-0.0126 8.74e-4,-0.0187 0,-0.0312 -0.105935,-1.5171 -0.228146,-2.76721 -0.375,-3.75 -0.148066,-0.9909 -0.25055,-1.64943 -0.6875,-2.46875 A 1.9966889,1.9966889 0 0 0 65.125,437.03125 c -0.536276,-0.63374 -1.503319,-1.12495 -2.375,-1.125 z" />
        <path
           sodipodi:type="inkscape:offset"
           inkscape:radius="0.9616366"
           inkscape:original="M 84.84375 438.71875 C 84.30111 438.71876 83.844396 438.99903 83.46875 439.5625 C 83.113943 440.12601 82.937485 440.6969 82.9375 441.28125 C 82.937485 441.55258 82.823306 441.98853 82.59375 442.59375 C 82.385034 443.17812 82.052878 444.06053 81.59375 445.1875 C 81.155464 446.3145 80.771408 447.35248 80.4375 448.3125 C 80.082695 449.37688 79.563591 450.50829 78.9375 451.71875 C 78.311386 452.90835 77.802771 453.76988 77.40625 454.3125 C 77.197539 453.83249 76.699305 452.24437 75.90625 449.53125 C 75.113178 446.79727 74.303547 444.38904 73.46875 442.34375 C 72.63394 440.2985 71.87621 439.19822 71.1875 439.03125 L 71.15625 439.03125 C 71.031026 439.01045 70.906467 439.00002 70.78125 439 C 70.342975 439.00002 70.124997 439.22837 70.125 439.6875 C 70.124997 440.20926 70.74779 442.47219 72 446.4375 C 72.208696 447.06361 72.457813 447.86287 72.75 448.84375 C 73.042176 449.80379 73.270534 450.57189 73.4375 451.15625 C 73.625325 451.74061 73.843302 452.40493 74.09375 453.15625 C 74.344184 453.8867 74.572541 454.46798 74.78125 454.90625 C 74.989943 455.34452 75.228681 455.7701 75.5 456.1875 C 75.771304 456.6049 76.04118 456.90592 76.3125 457.09375 C 76.604672 457.2816 76.916069 457.37499 77.25 457.375 C 77.876093 457.37499 78.685834 456.80411 79.625 455.65625 C 80.564142 454.48753 81.332253 453.13814 81.9375 451.59375 C 83.544482 447.50322 84.60323 444.6694 85.125 443.125 C 85.667605 441.55976 85.937482 440.50101 85.9375 439.9375 C 85.937482 439.60359 85.864823 439.3441 85.71875 439.15625 C 85.572641 438.96843 85.427323 438.8543 85.28125 438.8125 C 85.135141 438.7499 84.989823 438.71876 84.84375 438.71875 z "
           id="path3955"
           d="m 84.84375,437.75 c -0.873749,2e-5 -1.693942,0.54091 -2.1875,1.28125 a 0.96173277,0.96173277 0 0 0 0,0.0312 c -0.434242,0.68967 -0.68752,1.44079 -0.6875,2.21875 0,0.002 -0.0685,0.40784 -0.28125,0.96875 a 0.96173277,0.96173277 0 0 0 0,0.0312 c -0.203156,0.5688 -0.514654,1.41663 -0.96875,2.53125 a 0.96173277,0.96173277 0 0 0 -0.03125,0.0312 c -0.441798,1.13603 -0.817835,2.18327 -1.15625,3.15625 -0.33047,0.99138 -0.824098,2.09532 -1.4375,3.28125 -0.171038,0.32497 -0.253969,0.41456 -0.40625,0.6875 -0.258959,-0.80647 -0.38451,-1.14765 -0.84375,-2.71875 -0.799764,-2.75705 -1.647607,-5.19285 -2.5,-7.28125 -0.433074,-1.06101 -0.837245,-1.88653 -1.28125,-2.53125 -0.444005,-0.64472 -0.920319,-1.16533 -1.65625,-1.34375 a 0.96173277,0.96173277 0 0 0 -0.09375,0 0.96173277,0.96173277 0 0 0 -0.125,-0.0312 c -0.01026,-0.001 -0.02098,0.001 -0.03125,0 -0.124436,-0.0146 -0.249491,-0.0312 -0.375,-0.0312 -0.386141,2e-5 -0.85655,0.12204 -1.1875,0.46875 -0.33095,0.34671 -0.437502,0.80575 -0.4375,1.1875 -2e-6,0.32175 0.07263,0.56474 0.15625,0.9375 0.08362,0.37276 0.18501,0.83346 0.34375,1.40625 0.317479,1.14558 0.809363,2.69841 1.4375,4.6875 a 0.96173277,0.96173277 0 0 0 0,0.0312 c 0.203657,0.61099 0.459704,1.40047 0.75,2.375 0.291214,0.95688 0.491762,1.70556 0.65625,2.28125 a 0.96173277,0.96173277 0 0 0 0.03125,0.0312 c 0.189179,0.58857 0.404959,1.2774 0.65625,2.03125 0.257837,0.75204 0.4852,1.35332 0.71875,1.84375 0.227193,0.47712 0.48763,0.95454 0.78125,1.40625 0.314976,0.48459 0.641211,0.8646 1.0625,1.15625 a 0.96173277,0.96173277 0 0 0 0.03125,0.0312 c 0.431664,0.27754 0.955544,0.43748 1.46875,0.4375 1.210635,-2e-5 2.113242,-0.85717 3.125,-2.09375 1.005162,-1.25088 1.832085,-2.68794 2.46875,-4.3125 1.609689,-4.09742 2.653643,-6.91982 3.1875,-8.5 0.55424,-1.5988 0.874972,-2.6295 0.875,-3.5 -2.6e-5,-0.47338 -0.122854,-0.97036 -0.4375,-1.375 -0.190368,-0.24471 -0.473816,-0.45486 -0.8125,-0.59375 l 0,-0.0312 c -0.01842,-0.008 -0.04378,0.007 -0.0625,0 -0.03062,-0.0109 -0.03026,-0.0533 -0.0625,-0.0625 l 0,0.0312 c -0.220253,-0.0793 -0.448477,-0.15623 -0.6875,-0.15625 z" />
        <path
           sodipodi:type="inkscape:offset"
           inkscape:radius="1.2423939"
           inkscape:original="M 92.375 429.625 C 92.082814 429.62503 91.781798 429.74959 91.46875 430 C 91.176565 430.25047 91.01049 430.57225 90.96875 430.96875 C 90.968746 431.55314 91.165964 432.05137 91.5625 432.46875 C 91.959028 432.86531 92.374223 433.06252 92.8125 433.0625 C 93.229896 433.06252 93.562053 432.86531 93.8125 432.46875 C 94.062935 432.07224 94.187493 431.62591 94.1875 431.125 C 94.187493 430.66588 93.959136 430.30259 93.5 430.03125 C 93.040852 429.75996 92.667177 429.62503 92.375 429.625 z M 92.34375 437.90625 C 92.009824 437.90627 91.667287 438.03083 91.3125 438.28125 C 90.874224 438.57345 90.656247 439.35194 90.65625 440.625 C 90.656247 441.98157 90.760045 444.69083 90.96875 448.71875 C 91.198317 452.72582 91.364396 454.88483 91.46875 455.21875 C 91.635707 455.65702 92.082041 455.875 92.8125 455.875 C 93.292507 455.875 93.738842 455.70893 94.15625 455.375 C 94.281461 455.12456 94.343743 454.06581 94.34375 452.1875 C 94.343743 449.57874 94.229565 446.7553 94 443.75 C 93.791293 440.74472 93.521416 438.93862 93.1875 438.3125 C 92.957923 438.0412 92.677667 437.90627 92.34375 437.90625 z "
           id="path3953"
           d="m 92.375,428.375 c -0.64519,7e-5 -1.228015,0.2887 -1.6875,0.65625 a 1.2425181,1.2425181 0 0 0 -0.03125,0.0312 c -0.514761,0.44127 -0.867165,1.11312 -0.9375,1.78125 a 1.2425181,1.2425181 0 0 0 0,0.125 c -6e-6,0.86391 0.342594,1.71757 0.9375,2.34375 a 1.2425181,1.2425181 0 0 0 0.03125,0.0312 c 0.557515,0.55756 1.313997,0.96879 2.125,0.96875 0.808763,4e-5 1.646532,-0.52885 2.0625,-1.1875 0.375898,-0.59515 0.56249,-1.29314 0.5625,-2 -1.3e-5,-0.87107 -0.590544,-1.72959 -1.3125,-2.15625 -0.557986,-0.32969 -1.075433,-0.59368 -1.75,-0.59375 z m -0.03125,8.28125 c -0.629014,4e-5 -1.221531,0.25031 -1.71875,0.59375 l 0,0.0312 c -0.008,0.006 -0.02327,-0.006 -0.03125,0 -0.536948,0.37571 -0.815949,0.92303 -0.96875,1.46875 -0.156564,0.55916 -0.218752,1.16756 -0.21875,1.875 -3e-6,1.41995 0.103407,4.12084 0.3125,8.15625 0.115033,2.00789 0.228093,3.55896 0.3125,4.65625 0.0422,0.54865 0.08876,0.97829 0.125,1.3125 0.03624,0.33421 0.0132,0.48601 0.125,0.84375 a 1.2425181,1.2425181 0 0 0 0.03125,0.0625 c 0.190198,0.49928 0.599231,0.93 1.0625,1.15625 0.463269,0.22625 0.948687,0.3125 1.4375,0.3125 0.766564,0 1.527135,-0.30295 2.125,-0.78125 a 1.2425181,1.2425181 0 0 0 0.34375,-0.40625 c 0.169457,-0.33894 0.156207,-0.5001 0.1875,-0.71875 0.03129,-0.21865 0.04563,-0.46317 0.0625,-0.75 0.03374,-0.57366 0.0625,-1.32836 0.0625,-2.28125 -7e-6,-2.64501 -0.112067,-5.49822 -0.34375,-8.53125 -0.105726,-1.5224 -0.231757,-2.72887 -0.375,-3.6875 -0.143243,-0.95863 -0.258779,-1.6219 -0.59375,-2.25 A 1.2425181,1.2425181 0 0 0 94.125,437.5 c -0.420431,-0.49684 -1.112688,-0.84371 -1.78125,-0.84375 z" />
        <path
           sodipodi:type="inkscape:offset"
           inkscape:radius="0.89285713"
           inkscape:original="M 106.3125 438.9375 C 104.91419 438.93752 103.46101 439.64335 101.9375 441.0625 C 100.41398 442.46081 99.43827 443.83107 99 445.125 C 98.770427 445.85546 98.656248 446.61319 98.65625 447.40625 C 98.656248 450.22372 99.476257 452.42426 101.125 454.03125 C 102.77373 455.63825 104.61097 456.4375 106.65625 456.4375 C 109.13978 456.4375 111.56878 455.44104 113.90625 453.4375 C 114.51146 452.89488 115.1135 452.18905 115.71875 451.3125 C 116.32396 450.41509 116.62498 449.73002 116.625 449.25 C 116.62498 448.81174 116.43815 448.59376 116.0625 448.59375 C 115.74943 448.59376 115.25119 448.87402 114.5625 449.4375 C 113.89463 449.98013 113.19919 450.58216 112.46875 451.25 C 111.75915 451.91785 110.89762 452.53026 109.875 453.09375 C 108.85235 453.63637 107.85577 453.90625 106.9375 453.90625 C 105.78963 453.90625 104.66861 453.44954 103.5625 452.53125 C 102.7903 451.88429 102.22979 451.27187 101.875 450.6875 C 101.54108 450.10314 101.375 449.42845 101.375 448.65625 L 101.375 447.84375 L 104.09375 447.71875 C 106.24336 447.59354 108.35059 447.33404 110.375 446.9375 C 111.91938 446.62446 113.00926 446.28192 113.65625 445.90625 C 114.3032 445.5306 114.62498 444.94932 114.625 444.15625 C 114.62498 443.55103 114.35511 442.82433 113.8125 442.03125 C 113.26986 441.21733 112.66783 440.59454 112 440.15625 C 111.39475 439.75974 110.855 439.50024 110.375 439.375 C 109.91585 439.22893 109.09572 439.11475 107.96875 439.03125 C 107.23829 438.96865 106.68815 438.93752 106.3125 438.9375 z M 108 441.21875 C 108.52174 441.21876 108.91618 441.28104 109.1875 441.40625 C 109.47967 441.53149 109.98839 441.84289 110.65625 442.34375 C 111.57452 443.03248 112.03123 443.45805 112.03125 443.625 C 112.03123 444.02154 111.5849 444.33305 110.6875 444.5 C 107.09784 445.20959 104.2744 445.56251 102.25 445.5625 C 101.99018 445.5625 101.8448 445.54777 101.75 445.53125 C 101.76793 445.06482 102.54652 444.03722 104.15625 442.46875 C 104.69886 441.94701 105.20748 441.61486 105.6875 441.46875 C 106.18838 441.30181 106.95648 441.21876 108 441.21875 z "
           id="path3951"
           d="m 106.3125,438.03125 c -1.69876,2e-5 -3.34608,0.86348 -4.96875,2.375 -1.59769,1.46638 -2.681501,2.94361 -3.1875,4.4375 -0.257138,0.81817 -0.406252,1.68374 -0.40625,2.5625 -2e-6,2.99071 0.915469,5.46193 2.75,7.25 1.78018,1.73513 3.87836,2.6875 6.15625,2.6875 2.72236,0 5.38529,-1.1115 7.84375,-3.21875 a 0.89294642,0.89294642 0 0 0 0,-0.0312 c 0.67262,-0.60306 1.33354,-1.36131 1.96875,-2.28125 0.64625,-0.95826 1.06246,-1.70924 1.0625,-2.5625 -2e-5,-0.346 -0.0894,-0.72933 -0.375,-1.0625 -0.28557,-0.33317 -0.73323,-0.49999 -1.09375,-0.5 -0.8459,3e-5 -1.32276,0.45725 -2.0625,1.0625 -0.68329,0.55516 -1.38348,1.16578 -2.125,1.84375 a 0.89294642,0.89294642 0 0 0 -0.0312,0 c -0.63977,0.60213 -1.41745,1.18889 -2.375,1.71875 -0.008,0.005 -0.0229,-0.005 -0.0312,0 -0.9068,0.47584 -1.76522,0.6875 -2.5,0.6875 -0.91104,0 -1.82256,-0.33441 -2.8125,-1.15625 -0.70819,-0.59333 -1.18419,-1.13524 -1.46875,-1.59375 -0.24101,-0.42177 -0.36557,-0.9208 -0.375,-1.53125 l 1.84375,-0.0937 a 0.89294642,0.89294642 0 0 0 0.0312,0 c 2.18729,-0.1274 4.308,-0.40762 6.375,-0.8125 a 0.89294642,0.89294642 0 0 0 0.0312,0 c 1.58851,-0.32198 2.71153,-0.64904 3.53125,-1.125 0.88166,-0.51193 1.43747,-1.49668 1.4375,-2.53125 -3e-5,-0.87062 -0.36052,-1.73601 -0.96875,-2.625 -0.59511,-0.89262 -1.27609,-1.60888 -2.0625,-2.125 -0.63759,-0.4177 -1.25051,-0.71093 -1.84375,-0.875 -0.0203,-0.006 -0.0422,-0.026 -0.0625,-0.0312 l 0,0.0312 c -0.61877,-0.18933 -1.4345,-0.29142 -2.5625,-0.375 -0.74337,-0.0637 -1.29382,-0.12498 -1.71875,-0.125 z M 108,442.125 c 0.4507,10e-6 0.73783,0.0593 0.8125,0.0937 a 0.89294642,0.89294642 0 0 0 0.0312,0 c 0.14453,0.062 0.64539,0.36689 1.28125,0.84375 0.28642,0.21483 0.44237,0.34747 0.625,0.5 -0.0924,0.0271 -0.095,0.0395 -0.21875,0.0625 a 0.89294642,0.89294642 0 0 0 -0.0312,0 c -3.01851,0.59669 -5.14966,0.78663 -7,0.875 0.34474,-0.40067 0.7029,-0.81056 1.28125,-1.375 0.47814,-0.45975 0.86876,-0.72499 1.15625,-0.8125 a 0.89294642,0.89294642 0 0 0 0.0312,0 c 0.32539,-0.10845 1.0351,-0.18749 2.03125,-0.1875 z" />
        <path
           sodipodi:type="inkscape:offset"
           inkscape:radius="0.50507629"
           inkscape:original="M 122.59375 439.1875 C 122.3433 439.18752 122.11495 439.28094 121.90625 439.46875 C 121.57233 439.76095 121.36475 440.10348 121.28125 440.5 C 121.19773 440.87568 121.15625 441.40505 121.15625 442.09375 C 121.15625 445.41211 121.40537 449.52265 121.90625 454.40625 C 121.90625 454.46887 121.9166 454.64532 121.9375 454.9375 C 121.9792 455.20881 121.99999 455.40603 122 455.53125 C 122.0208 455.6356 122.05205 455.81206 122.09375 456.0625 C 122.15636 456.29207 122.21865 456.45815 122.28125 456.5625 C 122.34386 456.66685 122.42689 456.79141 122.53125 456.9375 C 122.63559 457.08359 122.76015 457.17705 122.90625 457.21875 C 123.0732 457.28135 123.26004 457.31249 123.46875 457.3125 C 123.9905 457.31249 124.38493 456.95958 124.65625 456.25 C 124.92755 455.56129 125.25971 454.17038 125.65625 452.0625 C 125.9693 450.41376 126.89321 448.65957 128.375 446.78125 C 129.87763 444.90295 131.25816 443.69877 132.53125 443.21875 C 133.49126 442.86397 133.96874 442.47991 133.96875 442.0625 C 133.96874 441.93729 133.91683 441.79197 133.8125 441.625 C 133.729 441.45805 133.54217 441.29198 133.25 441.125 C 132.95781 440.93716 132.61527 440.84376 132.21875 440.84375 C 131.1961 440.84376 129.98165 441.36275 128.5625 442.40625 C 127.14332 443.42889 126.01181 444.61231 125.21875 445.90625 C 124.90569 446.38627 124.66696 446.73919 124.5 446.96875 C 124.31216 446.1757 124.10456 445.05456 123.875 443.65625 C 123.66629 442.2371 123.56249 441.14721 123.5625 440.375 C 123.56249 440.02022 123.46908 439.73997 123.28125 439.53125 C 123.09341 439.3017 122.86505 439.18752 122.59375 439.1875 z "
           id="path3957"
           d="m 122.59375,438.6875 c -0.37602,3e-5 -0.74828,0.15161 -1.03125,0.40625 -0.39546,0.34606 -0.67074,0.78848 -0.78125,1.28125 -0.002,0.009 0.002,0.0217 0,0.0312 -0.0938,0.4354 -0.125,0.99134 -0.125,1.6875 0,3.32834 0.25251,7.44662 0.75,12.3125 0,0.0131 -2.8e-4,0.0484 0,0.0625 0.002,0.1134 0.0125,0.23787 0.0312,0.5 a 0.5051268,0.5051268 0 0 0 0,0.0312 c 0.04,0.2599 0.0625,0.46189 0.0625,0.53125 a 0.5051268,0.5051268 0 0 0 0,0.0937 c 0.0184,0.0924 0.0524,0.28322 0.0937,0.53125 a 0.5051268,0.5051268 0 0 0 0,0.0312 c 0.0687,0.25195 0.14182,0.44467 0.25,0.625 0.0727,0.12122 0.17161,0.25277 0.28125,0.40625 0.14267,0.19976 0.35699,0.38397 0.59375,0.46875 0.008,0.003 0.0234,-0.003 0.0312,0 0.0138,0.005 0.0172,0.0272 0.0312,0.0312 l 0,-0.0312 c 0.21527,0.0727 0.44956,0.12499 0.6875,0.125 0.37475,-10e-6 0.75126,-0.12448 1.03125,-0.375 0.27999,-0.25052 0.47016,-0.59504 0.625,-1 0.30477,-0.77367 0.6327,-2.16268 1.03125,-4.28125 0.29132,-1.53432 1.17469,-3.22408 2.625,-5.0625 1.47414,-1.84269 2.81254,-2.98208 3.9375,-3.40625 0.51005,-0.18849 0.90993,-0.3766 1.21875,-0.625 0.30882,-0.2484 0.53124,-0.59871 0.53125,-1 -2e-5,-0.2437 -0.10078,-0.4568 -0.21875,-0.65625 -0.0102,-0.0172 0.0107,-0.0454 0,-0.0625 l -0.0312,0.0312 c -0.1534,-0.28109 -0.38467,-0.47908 -0.6875,-0.65625 -0.007,-0.004 0.007,-0.0272 0,-0.0312 -0.008,-0.005 -0.0227,0.005 -0.0312,0 -0.37376,-0.23284 -0.81603,-0.34374 -1.28125,-0.34375 -1.18696,10e-6 -2.48186,0.58997 -3.9375,1.65625 -0.008,0.006 -0.0232,-0.006 -0.0312,0 l 0,0.0312 c -1.43576,1.04082 -2.61261,2.2601 -3.4375,3.59375 -0.003,0.005 -0.028,-0.005 -0.0312,0 -0.12417,-0.63039 -0.2647,-1.17067 -0.40625,-2.03125 -0.002,-0.0135 0.002,-0.0178 0,-0.0312 -0.20278,-1.38633 -0.31251,-2.46755 -0.3125,-3.1875 -1e-5,-0.42941 -0.11084,-0.84558 -0.375,-1.15625 -0.005,-0.006 -0.0262,0.006 -0.0312,0 -0.004,-0.005 0.004,-0.0265 0,-0.0312 -0.26299,-0.30273 -0.6636,-0.49997 -1.0625,-0.5 z" />
      </g>
    </g>
    <path
       style="fill:none;stroke:#aaccee;stroke-width:5;stroke-linecap:round;stroke-linejoin:miter;stroke-miterlimit:4;stroke-opacity:1;stroke-dasharray:none"
       d="m 339.0923,316.7212 c 2.90216,-0.54123 7.41798,0.25354 10.31359,0.84105"
       id="path4041"
       inkscape:connector-curvature="0"
       sodipodi:nodetypes="cc" />
    <path
       style="fill:none;stroke:#aaccee;stroke-width:5;stroke-linecap:round;stroke-linejoin:miter;stroke-miterlimit:4;stroke-opacity:1;stroke-dasharray:none"
       d="m 333.28929,294.16993 c -2.13586,3.10293 -3.71335,6.4901 -4.33606,9.79762"
       id="path4043"
       inkscape:connector-curvature="0"
       sodipodi:nodetypes="cc" />
    <path
       style="fill:none;stroke:#aaccee;stroke-width:5;stroke-linecap:round;stroke-linejoin:miter;stroke-miterlimit:4;stroke-opacity:1;stroke-dasharray:none"
       d="m 334.97908,310.08396 c 4.05009,-2.68034 5.99502,-4.01561 9.83222,-4.25721"
       id="path4045"
       inkscape:connector-curvature="0"
       sodipodi:nodetypes="cc" />
  </g>
</svg>
